<?xml version="1.0" encoding="UTF-8"?>
<svg xmlns="http://www.w3.org/2000/svg" xmlns:xlink="http://www.w3.org/1999/xlink" viewBox="0 0 906.3 439.14">
  <defs>
    <style>
      .cls-1 {
        fill: none;
      }

      .cls-2 {
        fill: #2e5c99;
      }

      .cls-3 {
        fill: #ce210f;
      }

      .cls-4 {
        fill: #1d2362;
      }

      .cls-5 {
        fill: url(#linear-gradient);
      }

      .cls-6 {
        fill: #fff;
      }

      .cls-7 {
        fill: #1d70b7;
      }

      .cls-8 {
        fill: #35a8e0;
      }

      .cls-9 {
        clip-path: url(#clippath);
      }
    </style>
    <clipPath id="clippath">
      <rect class="cls-1" x="1.3" y=".56" width="904.7" height="226.8"/>
    </clipPath>
    <linearGradient id="linear-gradient" x1="739.79" y1="-399.52" x2="708.5" y2="-453.97" gradientTransform="translate(0 -41.2) scale(1 -1)" gradientUnits="userSpaceOnUse">
      <stop offset="0" stop-color="#e6ebef"/>
      <stop offset="0" stop-color="#bbcee5"/>
      <stop offset=".2" stop-color="#85a9d8"/>
      <stop offset=".3" stop-color="#5d8fcf"/>
      <stop offset=".4" stop-color="#457ec9"/>
      <stop offset=".4" stop-color="#3c78c7"/>
      <stop offset=".9" stop-color="#2e5c99"/>
    </linearGradient>
  </defs>
  <g id="Logos">
    <g>
      <path class="cls-8" d="M219.8,181.96h0c-4.9-6.3-10.5-13.4-16.5-20.9-7.9,3.5-18.8,8.4-19.8,9.1,0,0,0,.1-.1.2l-4.8,12c-.5.9-1.8.8-2.1-.2,0,0-.3-9.7-2.1-12.8-1.9-2.9-10.3-7.8-10.3-7.8-.8-.7-.3-2,.8-1.9l12.9,1.4h.2c1.1-.5,9.2-6.8,15.8-12-35.5-44.7-80.6-101.4-97.6-122.8-2.6-3.2-4.5-5.6-5.6-7.1q-.8-1,0,0c-7.4-7.8-14.8-13.9-28.4-15.2S21.5.06,21.5.06c-5.1-.5-7.4,2.1-6.6,6.6.1.7,17.8,94.2,17.8,94.2l19,99.8c24.6,3.3,56.7-3.9,87.4-21.5,5.7-3.3,12.8-6.8,18-10.6.1-.1.3-.2.4-.2,2.6,1.6,7,4.6,8.2,6.6,1.1,2,1.7,6.9,1.9,10-8.2,5.6-15.9,10.6-25.9,15.2-30.7,14.2-61.8,19.6-87,16.9l.9,4.8v.2c.6,3,3.2,5.2,6.4,5.2h.1c26.8,0,142.5-.1,169.8,0h0c6.3,0,11.4-5.1,11.4-11.4s-.8-4.7-2-6.5l-.1-.1c-.1-.1-.2-.2-.3-.4s-.3-.4-.4-.6v-.1c-2.6-3.3-9.6-12.1-19.2-24.2-.6-.2-1.1-.8-1.3-1.6h0l-.2-.4Z"/>
      <path class="cls-8" d="M219.8,181.96c.2.8.7,1.3,1.3,1.6-.4-.6-.9-1.1-1.3-1.7h0v.1Z"/>
      <path class="cls-7" d="M177.7,160.96l-12.9-1.4c-1,0-1.6,1.3-.8,1.9,0,0,8.4,4.9,10.3,7.8,1.7,3,2.1,12.8,2.1,12.8.2,1,1.6,1.2,2.1.2l4.8-12s0-.1.1-.2c1.1-.8,12-5.7,19.8-9.1-3.1-3.9-6.3-7.9-9.6-12.1-6.6,5.1-14.7,11.5-15.8,12h-.2l.1.1Z"/>
      <path class="cls-7" d="M141.6,199.86c10.1-4.7,17.8-9.6,25.9-15.2-.2-3.1-.8-8-1.9-10-1.3-2-5.6-4.9-8.2-6.6-.1,0-.3.1-.4.2-5.2,3.8-12.3,7.3-18,10.6-30.7,17.6-62.8,24.8-87.4,21.5l3.1,16.4c25.2,2.8,56.3-2.6,87-16.9h-.1Z"/>
      <path class="cls-8" d="M695.9,53.06c-.2-.2-.5-.5-.7-.9l.7.8h0v.1Z"/>
      <path class="cls-4" d="M254.8,81.46c-7.4,2.6-16,7.6-32.7,18.6l-43.9-.3c-2.1.1-2.9,2.9-1.1,4.1l19.7,13c1.3.8,1.7,2,.1,3.6,0,0-19.9,20.5-21.6,21.6h-.2l-13,.3c-1,.1-1.4,1.4-.5,2,0,0,9,3.8,11.2,6.4,2.1,2.8,3.7,12.4,3.7,12.4.4,1,1.8,1,2.1,0l3.2-12.6v-.2c1.5-1.4,26-16.1,26-16.1,1.9-1.1,2.9-.4,3.5,1l8.1,22.1c.7,2,3.6,1.9,4.2-.1l9.9-42.8c14.6-13.8,21.5-21,25.7-27.5,1.3-2,1.8-3.6.6-5-1.1-1.5-2.8-1.3-5-.6h0v.1Z"/>
      <path class="cls-4" d="M164.8,157.16c-1.5-1.8-6.2-4.2-9-5.5-.1.1-.3.2-.4.3-4.7,4.4-11.3,8.9-16.5,12.8-47.5,36-102.8,43.1-123.4,16-11-14.5-9.9-35.7.6-57.9.4-.9-.8-1.6-1.3-.7C-.8,146.96-4.9,172.16,6.5,190.36c20.3,32.3,82,30.1,137.7-5,9.4-5.9,16.4-11.8,23.8-18.4-.6-3.1-1.8-7.9-3.2-9.7v-.1Z"/>
      <ellipse class="cls-6" cx="71.98" cy="108.95" rx="11.7" ry="16.5" transform="translate(-56.18 83.92) rotate(-45.5)"/>
      <ellipse class="cls-6" cx="60.82" cy="132.85" rx="9.2" ry="12.5" transform="translate(-85.19 138.46) rotate(-67.6)"/>
      <ellipse class="cls-6" cx="96.9" cy="93.65" rx="11.7" ry="16.5" transform="translate(-24.5 35.16) rotate(-18.3)"/>
      <ellipse class="cls-6" cx="123.19" cy="94.06" rx="12.5" ry="9.2" transform="translate(20.97 210.56) rotate(-86.1)"/>
      <path class="cls-6" d="M141.7,123.36c.9,1.4,1.6,2.8,2.1,4.3,1.9,6.5-.7,13.6-6.7,17.4-3.4,2.1-7.3,2.8-10.9,2.1-.4-.1-.7-.2-1.1-.2-3.6-.7-7.6,0-10.9,2.1-3.2,2-5.4,4.9-6.5,8.2h0c-.3.8-.5,1.6-.6,2.4h0c-1.1,3.3-3.3,6.3-6.5,8.2-6.7,4.1-15.2,2.6-20.1-3.3-.2-.3-.4-.6-.7-.9-.2-.3-.4-.5-.6-.8,0-.1-.2-.3-.3-.4-8.3-13.4-1.4-32.7,15.4-43.6.2-.2.5-.3.7-.5s.5-.3.7-.4c16.5-9.9,36-8.1,44.8,4,0,0,.1.2.2.3.3.4.6.8.8,1.2h0l.2-.1Z"/>
      <path class="cls-6" d="M107.6,157.16c-.1.8-.3,1.6-.6,2.4.1-.8.3-1.6.6-2.4Z"/>
      <path class="cls-6" d="M143.8,127.66c-.5-1.5-1.2-2.9-2.1-4.3-.3-.4-.5-.8-.8-1.2.4.5.8,1.1,1.2,1.6.8,1.2,1.4,2.6,1.7,3.9h0Z"/>
      <path class="cls-4" d="M273.4,120.36h45.7c27,0,44.3,13.9,44.3,37.5v.3c0,25.1-19.4,38.4-45.9,38.4h-14.6v30.5h-29.6v-106.7h.1ZM317,173.46c10.5,0,16.9-5.5,16.9-13.9v-.3c0-9.1-6.4-14-17.1-14h-13.9v28.2h14.1Z"/>
      <path class="cls-4" d="M369.7,120.36h85.8v25.1h-56.5v16.1h51.2v23.3h-51.2v16.9h57.3v25.1h-86.5v-106.7h0l-.1.2Z"/>
      <path class="cls-4" d="M495.9,146.26h-32v-25.9h93.5v25.9h-32v80.8h-29.6v-80.8h.1Z"/>
      <path class="cls-8" d="M593.3,119.66h28.5l45.4,107.4h-31.7l-7.8-19.1h-41.1l-7.6,19.1h-31.1l45.4-107.4h0ZM619.2,184.96l-11.9-30.3-12,30.3h23.9Z"/>
      <path class="cls-8" d="M672.6,120.36h29.7v106.7h-29.7s0-106.7,0-106.7Z"/>
      <path class="cls-8" d="M710.8,120.36h50.4c16.3,0,27.6,4.3,34.7,11.6,6.2,6.1,9.5,14.3,9.5,24.8v.3c0,16.3-8.7,27.1-21.9,32.8l25.4,37.2h-34.1l-21.5-32.3h-13v32.3h-29.6v-106.7h.1ZM759.9,171.56c10,0,15.8-4.9,15.8-12.6v-.3c0-8.4-6.1-12.6-16-12.6h-19.3v25.6h19.5v-.1Z"/>
      <circle class="cls-4" cx="865.9" cy="135.86" r="40.4"/>
      <path class="cls-6" d="M839.4,138.46v-14.7h7.3v14.5c0,3.8,1.9,5.6,4.8,5.6s4.8-1.7,4.8-5.4v-14.7h7.3v14.5c0,8.4-4.8,12.1-12.2,12.1s-12.1-3.8-12.1-11.9h.1Z"/>
      <path class="cls-6" d="M868.1,123.76h7.2v10.6l9-10.6h8.6l-9.9,11.2,10.2,14.9h-8.7l-6.6-9.7-2.7,2.9v6.8h-7.2v-26.1h.1Z"/>
      <path class="cls-4" d="M370.4,120.96v106.5h86.4v-25.1h-57.2v-16.9h51.1v-23.3h-51.1v-16.1h56.4v-25.1h-85.6,0ZM370.4,120.96h0Z"/>
      <polygon class="cls-4" points="464.4 120.96 464.4 146.76 496.4 146.76 496.4 227.46 525.9 227.46 525.9 146.76 557.8 146.76 557.8 120.96 464.4 120.96"/>
      <path class="cls-8" d="M607.6,155.16l11.9,30.3h-23.9l12-30.3ZM593.6,120.16h0l-45.3,107.2h31l7.6-19h41.1l7.8,19h31.6l-45.3-107.2h-28.5,0Z"/>
      <rect class="cls-8" x="672.8" y="120.96" width="29.7" height="106.5"/>
      <g class="cls-9">
        <g>
          <path class="cls-8" d="M759.9,172.06c10,0,15.8-4.9,15.8-12.6v-.3c0-8.4-6.1-12.6-16-12.6h-19.3v25.6h19.5v-.1ZM710.9,120.96h50.3c16.3,0,27.5,4.3,34.7,11.6,6.2,6.1,9.4,14.3,9.4,24.8v.3c0,16.3-8.7,27.1-21.9,32.7l25.4,37.1h-34.1l-21.4-32.2h-12.9v32.2h-29.5v-106.5h0Z"/>
          <path class="cls-4" d="M865.7,96.06c22.3,0,40.3,18.1,40.3,40.3s-18.1,40.3-40.3,40.3-40.3-18.1-40.3-40.3,18.1-40.3,40.3-40.3"/>
          <path class="cls-6" d="M839.3,138.96v-14.6h7.3v14.5c0,3.8,1.9,5.6,4.8,5.6s4.8-1.7,4.8-5.4v-14.7h7.3v14.4c0,8.4-4.8,12.1-12.2,12.1s-12.1-3.8-12.1-11.9h.1Z"/>
        </g>
      </g>
      <polygon class="cls-6" points="867.9 124.36 875.1 124.36 875.1 134.96 884.1 124.36 892.6 124.36 882.8 135.56 893 150.46 884.3 150.46 877.7 140.76 875.1 143.66 875.1 150.46 867.9 150.46 867.9 124.36"/>
    </g>
    <g>
      <g>
        <path class="cls-2" d="M151.9,437.78c1.29-.74,2.03-2.3,2.03-3.79v-34.34c0-1.56-.54-3.05-2.03-3.79h16.25c7.38,0,14.49,3.05,14.49,11.17s-3.79,7.86-7.86,8.67c5.82,0,11.72,3.59,11.72,10.16,0,9.41-9.89,11.72-16.8,11.72h-17.81v.27-.07ZM165.17,399.66h-2.78v14.76h1.76c5.08,0,9.89-1.56,9.89-7.38s-3.79-7.38-8.87-7.38ZM166.18,418.21h-3.79v15.51c1.76.27,3.79.54,5.62.54,4.06,0,8.4-1.76,8.4-8.4s-5.08-7.65-10.43-7.65h.27-.07ZM202.55,399.66h-2.03v14.49h2.03c4.81,0,8.13-2.57,8.13-7.65s-3.32-7.11-8.13-7.11v.27ZM223.61,438.05c-1.56,0-3.32,0-4.81-.54-2.78-.74-6.84-7.38-8.4-9.68-2.57-4.06-4.61-9.68-9.89-9.68v16.05c0,1.29.54,3.05,2.03,3.79h-12.46c1.29-.74,2.03-2.3,2.03-3.79v-34.34c0-1.56-.54-3.05-2.03-3.79h15.03c6.64,0,14.76,2.57,14.76,10.43s-5.62,9.89-11.72,9.89c8.67,0,13.75,20.32,23.36,20.59-2.57.74-5.35,1.02-7.86,1.02l-.07.07ZM232.28,437.78c1.02-.54,2.03-1.76,2.03-3.79v-34.34c0-1.76-1.02-3.32-2.03-3.79h13c-1.02.54-2.03,1.76-2.03,3.79v34.34c0,1.76,1.02,3.32,2.03,3.79h-13ZM260.25,437.78c1.29-.54,2.03-2.3,2.03-3.79v-33.32h-9.14c-2.03,0-4.61.27-6.64,1.29l2.78-6.1h30.54c2.57,0,5.08,0,7.38-.54-1.29,3.05-4.61,5.62-6.64,5.62h-9.89v33.32c0,1.56.74,3.05,2.03,3.79h-12.73l.27-.27h0ZM288.97,437.78c1.02-.54,2.03-1.76,2.03-3.79v-34.34c0-1.76-1.02-3.32-2.03-3.79h13c-1.02.54-2.03,1.76-2.03,3.79v34.34c0,1.76,1.02,3.32,2.03,3.79h-13ZM326.89,428.44c0-7.86-18.83-9.68-18.83-22.35s7.38-10.43,14.02-10.43,7.11.54,9.89,1.56l.54,7.86c-1.56-3.59-5.82-5.82-9.68-5.82s-6.1,1.56-6.1,5.08c0,8.13,19.1,10.16,19.1,22.35s-7.65,12.46-15.24,12.46-9.41-.74-13-3.05c0-1.29-.27-2.78-.27-4.33s0-3.32.54-5.08c2.03,4.81,6.64,8.67,11.99,8.67s7.38-1.76,7.38-6.37l-.27-.54h-.07ZM367.05,437.78c1.02-.54,1.76-1.76,1.76-3.79v-15.51c-2.3,0-5.35-.27-8.87-.27s-6.64,0-8.87.27v15.51c0,1.76,1.02,3.32,1.76,3.79h-12.46c1.02-.54,1.76-1.76,1.76-3.79v-34.34c0-1.76-1.02-3.32-1.76-3.79h12.46c-1.02.54-1.76,1.76-1.76,3.79v14.02c2.3,0,5.35.27,8.87.27s6.64,0,8.87-.27v-14.02c0-1.76-1.02-3.32-1.76-3.79h12.46c-1.02.54-1.76,1.76-1.76,3.79v34.34c0,1.76,1.02,3.32,1.76,3.79h-12.46Z"/>
        <path class="cls-2" d="M425.29,437.78c.54-.54.74-.74.74-1.56s0-.74-.54-1.56c0,0-3.32-9.41-3.79-10.43-2.57-.27-5.35-.27-7.86-.27s-5.08,0-7.65.27c-.27,1.02-4.06,10.16-4.06,10.16-.54,1.29-.74,1.76-.74,2.03,0,.54.54,1.02,1.02,1.02h-8.4c1.29-.54,2.3-2.03,2.78-3.32l13.75-35.62v-.54c0-1.02-.74-2.03-1.56-2.3h10.9l14.02,38.67c.54,1.56,1.76,2.78,2.78,3.32h-11.99.54l.07.14ZM414.39,403.99l-6.37,16.25c1.76,0,3.79.27,5.82.27s4.33,0,6.64-.27l-5.82-16.25h-.27ZM439.58,437.78c1.02-.54,2.03-1.76,2.03-3.79v-34.34c0-1.76-1.02-3.32-2.03-3.79h13c-1.02.54-2.03,1.76-2.03,3.79v34.34c0,1.76,1.02,3.32,2.03,3.79h-13ZM471.88,399.66h-2.03v14.49h2.03c4.81,0,8.13-2.57,8.13-7.65s-3.59-7.11-8.13-7.11v.27ZM493.96,438.05c-1.56,0-3.32,0-4.81-.54-2.78-.74-6.84-7.38-8.4-9.68-2.57-4.06-5.62-9.68-10.9-9.68v16.05c0,1.29.54,3.05,2.03,3.79h-12.46c1.29-.74,2.03-2.3,2.03-3.79v-34.34c0-1.56-.54-3.05-2.03-3.79h15.24c6.64,0,14.76,2.57,14.76,10.43s-6.1,9.89-10.43,9.89c8.87.54,14.49,20.59,23.36,20.59-2.57.74-5.35,1.02-7.86,1.02h-.54v.07ZM546.11,400.2l-12.73,37.65c-1.02,0-2.03-.27-2.57-.74-1.29-1.29-3.32-6.37-4.06-8.13l-5.82-14.49-8.4,23.36h-3.79l-14.22-37.92c-.54-1.56-1.56-3.05-3.32-4.06h12.46c-.54.54-.74.74-.74,1.76s0,1.02.27,1.56l9.14,24.92,9.89-28.24,10.9,27.22,8.13-24.65c0-.74.27-1.02.27-1.29s0-.74-.74-1.29h8.13c-1.56.74-2.57,2.57-3.05,4.06l.27.27h0ZM561.34,403.99l-6.37,16.25c2.03,0,3.79.27,5.82.27s4.33,0,6.37-.27l-5.82-16.25ZM572.32,437.78c.54-.54.74-.74.74-1.56s0-.74-.27-1.56c0,0-3.32-9.41-3.79-10.43-2.57-.27-5.35-.27-7.86-.27s-5.08,0-7.38.27c-.27,1.02-4.06,10.16-4.06,10.16-.54,1.29-.74,1.76-.74,2.03,0,.54.54,1.02,1.02,1.02h-8.4c1.29-.54,2.3-2.03,2.78-3.32l14.02-35.62v-.54c0-1.02-.74-2.03-1.56-2.3h10.9l14.02,38.67c.54,1.56,1.76,2.78,2.78,3.32h-12.19v.14ZM609.97,400.4l-9.89,17.27v16.25c0,1.29.54,3.05,1.76,3.79h-12.19c1.29-.74,1.76-2.57,1.76-3.79v-16.25l-8.67-13.75c-.74-1.29-4.33-7.38-8.67-7.38,1.29-.54,4.81-1.02,7.11-1.02,4.06,0,6.1.27,8.67,4.33l7.86,12.73c.74-1.29,6.84-12.19,6.84-12.19.74-1.29,1.29-2.3,1.29-2.78s-.27-1.02-.74-1.29h8.87c-1.76.74-3.32,2.78-4.06,4.33v-.27h.07ZM633.06,428.44c0-7.86-18.83-9.68-18.83-22.35s7.38-10.43,14.02-10.43,7.11.54,9.89,1.56l.54,7.86c-1.76-3.59-5.82-5.82-9.68-5.82s-6.1,1.56-6.1,5.08c0,8.13,19.1,10.16,19.1,22.35s-7.65,12.46-15.24,12.46-9.41-.74-13-3.05c0-1.29-.27-2.78-.27-4.33s0-3.32.54-5.08c2.03,4.81,6.64,8.67,11.99,8.67s7.38-1.76,7.38-6.37l-.27-.54h-.07Z"/>
      </g>
      <path class="cls-5" d="M748.53,366.88c-7.11,6.84-22.35,13-29.73,15.78-10.16,3.79-14.76,5.08-20.59,7.11-6.37,2.03-19.3,6.1-19.3,6.1,26.95,8.13,45.78,10.43,45.78,10.43,0,0,8.87-2.78,22.89-10.16,7.65-3.79,11.17-6.37,14.02-8.87,1.02-.74,3.59-3.59,4.06-6.84v-3.05s0-.74-.27-1.29c0-.54-1.02-2.3-2.57-3.32-1.02-.74-2.57-2.57-8.4-4.81-2.03-.74-5.35-1.29-5.35-1.29l-.54.54v-.34Z"/>
      <path class="cls-3" d="M765.87,378.53v-1.29c0-.54-.54-1.02-.74-1.76-.54-.74-1.02-1.56-2.03-2.3-.74-.74-1.56-1.29-2.3-1.76-3.59-2.3-8.4-3.79-12.46-4.33-6.64-.74-14.02-.74-14.76-.74h-21.87c-17.54.27-39.14.54-45.04.54-58.51.27-83.91-1.02-112.15-6.64-24.18-4.81-37.38-9.41-37.38-9.41,21.33-.74,145.2-5.82,167.88-6.37,14.76-.54,25.46-.54,33.79,0,4.33,0,8.4.54,13.48,1.56,4.61.74,8.67,2.03,10.9,3.05,5.08,1.76,9.14,4.61,11.45,7.38,0,0,.54.54,1.56,1.76,1.02,1.29,2.03,3.05,2.3,3.59,3.05,4.61,4.61,7.65,5.08,8.67.54,1.02,1.02,2.3,1.56,3.32s.74,1.76.74,2.3c.27,1.02.54,2.3.54,2.3v.74l-.54-.54v-.07Z"/>
    </g>
  </g>
  <g id="preferred_PArtner" data-name="preferred PArtner">
    <g>
      <path class="cls-4" d="M242.45,282.99h7.73c4.59,0,7.45,2.6,7.45,6.55v.06c0,4.4-3.53,6.69-7.84,6.69h-3.89v6.3h-3.44v-19.6ZM249.9,293.19c2.6,0,4.23-1.46,4.23-3.5v-.06c0-2.3-1.65-3.5-4.23-3.5h-4v7.06h4Z"/>
      <path class="cls-4" d="M263.96,282.99h8.74c2.46,0,4.4.73,5.66,1.96,1.04,1.06,1.62,2.52,1.62,4.23v.06c0,3.22-1.93,5.15-4.65,5.94l5.29,7.42h-4.09l-4.82-6.83h-4.31v6.83h-3.44v-19.6ZM272.44,292.71c2.46,0,4.03-1.29,4.03-3.28v-.06c0-2.1-1.51-3.25-4.06-3.25h-5.01v6.58h5.04Z"/>
      <path class="cls-4" d="M287,282.99h14.53v3.08h-11.09v5.1h9.83v3.08h-9.83v5.26h11.23v3.08h-14.67v-19.6Z"/>
      <path class="cls-4" d="M308.56,282.99h14.59v3.14h-11.14v5.35h9.88v3.14h-9.88v7.98h-3.44v-19.6Z"/>
      <path class="cls-4" d="M329.73,282.99h14.53v3.08h-11.09v5.1h9.83v3.08h-9.83v5.26h11.23v3.08h-14.67v-19.6Z"/>
      <path class="cls-4" d="M351.29,282.99h8.74c2.46,0,4.4.73,5.66,1.96,1.04,1.06,1.62,2.52,1.62,4.23v.06c0,3.22-1.93,5.15-4.65,5.94l5.29,7.42h-4.09l-4.82-6.83h-4.31v6.83h-3.44v-19.6ZM359.77,292.71c2.46,0,4.03-1.29,4.03-3.28v-.06c0-2.1-1.51-3.25-4.06-3.25h-5.01v6.58h5.04Z"/>
      <path class="cls-4" d="M374.33,282.99h8.74c2.46,0,4.4.73,5.66,1.96,1.04,1.06,1.62,2.52,1.62,4.23v.06c0,3.22-1.93,5.15-4.65,5.94l5.29,7.42h-4.09l-4.82-6.83h-4.31v6.83h-3.44v-19.6ZM382.82,292.71c2.46,0,4.03-1.29,4.03-3.28v-.06c0-2.1-1.51-3.25-4.06-3.25h-5.01v6.58h5.04Z"/>
      <path class="cls-4" d="M397.38,282.99h14.53v3.08h-11.09v5.1h9.83v3.08h-9.83v5.26h11.23v3.08h-14.67v-19.6Z"/>
      <path class="cls-4" d="M418.94,282.99h7.31c6.16,0,10.42,4.23,10.42,9.74v.06c0,5.52-4.26,9.8-10.42,9.8h-7.31v-19.6ZM422.38,286.13v13.33h3.86c4.12,0,6.8-2.77,6.8-6.61v-.06c0-3.84-2.69-6.66-6.8-6.66h-3.86Z"/>
      <path class="cls-4" d="M454.83,282.99h7.73c4.59,0,7.45,2.6,7.45,6.55v.06c0,4.4-3.53,6.69-7.84,6.69h-3.89v6.3h-3.44v-19.6ZM462.28,293.19c2.6,0,4.23-1.46,4.23-3.5v-.06c0-2.3-1.65-3.5-4.23-3.5h-4v7.06h4Z"/>
      <path class="cls-4" d="M481.32,282.85h3.19l8.62,19.74h-3.64l-1.99-4.73h-9.27l-2.02,4.73h-3.53l8.62-19.74ZM486.25,294.81l-3.39-7.84-3.36,7.84h6.75Z"/>
      <path class="cls-4" d="M499.29,282.99h8.74c2.46,0,4.4.73,5.66,1.96,1.04,1.06,1.62,2.52,1.62,4.23v.06c0,3.22-1.93,5.15-4.65,5.94l5.29,7.42h-4.09l-4.82-6.83h-4.31v6.83h-3.44v-19.6ZM507.78,292.71c2.46,0,4.03-1.29,4.03-3.28v-.06c0-2.1-1.51-3.25-4.06-3.25h-5.01v6.58h5.04Z"/>
      <path class="cls-4" d="M527.07,286.19h-6.22v-3.19h15.9v3.19h-6.22v16.41h-3.47v-16.41Z"/>
      <path class="cls-4" d="M543.2,282.99h3.19l10.5,13.55v-13.55h3.39v19.6h-2.88l-10.81-13.94v13.94h-3.39v-19.6Z"/>
      <path class="cls-4" d="M568.12,282.99h14.53v3.08h-11.09v5.1h9.83v3.08h-9.83v5.26h11.23v3.08h-14.67v-19.6Z"/>
      <path class="cls-4" d="M589.68,282.99h8.74c2.46,0,4.4.73,5.66,1.96,1.04,1.06,1.62,2.52,1.62,4.23v.06c0,3.22-1.93,5.15-4.65,5.94l5.29,7.42h-4.09l-4.82-6.83h-4.31v6.83h-3.44v-19.6ZM598.16,292.71c2.46,0,4.03-1.29,4.03-3.28v-.06c0-2.1-1.51-3.25-4.06-3.25h-5.01v6.58h5.04Z"/>
      <path class="cls-4" d="M623.05,292.85v-.06c0-5.52,4.26-10.14,10.28-10.14s10.22,4.56,10.22,10.08v.06c0,5.52-4.26,10.14-10.28,10.14s-10.22-4.56-10.22-10.08ZM639.94,292.85v-.06c0-3.81-2.77-6.97-6.66-6.97s-6.61,3.11-6.61,6.92v.06c0,3.81,2.77,6.94,6.66,6.94s6.61-3.08,6.61-6.89Z"/>
      <path class="cls-4" d="M650.52,282.99h14.59v3.14h-11.14v5.35h9.88v3.14h-9.88v7.98h-3.44v-19.6Z"/>
    </g>
  </g>
</svg>