<svg xmlns="http://www.w3.org/2000/svg" xmlns:xlink="http://www.w3.org/1999/xlink" id="Layer_1" viewBox="0 0 246.8 62.1"><defs><style>      .st0 {        fill: #2e5c99;      }      .st1 {        fill: #ce210f;      }      .st2 {        fill: #1d2362;      }      .st3 {        fill: url(#linear-gradient);      }    </style><linearGradient id="linear-gradient" x1="233.9" y1="-473.6" x2="221.6" y2="-495" gradientTransform="translate(0 -464.7) scale(1 -1)" gradientUnits="userSpaceOnUse"><stop offset="0" stop-color="#e6ebef"></stop><stop offset="0" stop-color="#bbcee5"></stop><stop offset=".2" stop-color="#85a9d8"></stop><stop offset=".3" stop-color="#5d8fcf"></stop><stop offset=".4" stop-color="#457ec9"></stop><stop offset=".4" stop-color="#3c78c7"></stop><stop offset=".9" stop-color="#2e5c99"></stop></linearGradient></defs><g><path class="st0" d="M2.8,40.2c.5-.3.8-.9.8-1.5v-13.5c0-.6-.2-1.2-.8-1.5h6.4c2.9,0,5.7,1.2,5.7,4.4s-1.5,3.1-3.1,3.4c2.3,0,4.6,1.4,4.6,4,0,3.7-3.9,4.6-6.6,4.6H2.8ZM8,25.2h-1.1v5.8h.7c2,0,3.9-.6,3.9-2.9s-1.5-2.9-3.5-2.9ZM8.4,32.5h-1.5v6.1c.7,0,1.5.2,2.2.2,1.6,0,3.3-.7,3.3-3.3s-2-3-4.1-3h.1ZM22.7,25.2h-.8v5.7h.8c1.9,0,3.2-1,3.2-3s-1.3-2.8-3.2-2.8h0ZM31,40.3c-.6,0-1.3,0-1.9-.2-1.1-.3-2.7-2.9-3.3-3.8-1-1.6-1.8-3.8-3.9-3.8v6.3c0,.5.2,1.2.8,1.5h-4.9c.5-.3.8-.9.8-1.5v-13.5c0-.6-.2-1.2-.8-1.5h5.9c2.6,0,5.8,1,5.8,4.1s-2.2,3.9-4.6,3.9c3.4,0,5.4,8,9.2,8.1-1,.3-2.1.4-3.1.4ZM34.4,40.2c.4-.2.8-.7.8-1.5v-13.5c0-.7-.4-1.3-.8-1.5h5.1c-.4.2-.8.7-.8,1.5v13.5c0,.7.4,1.3.8,1.5h-5.1ZM45.4,40.2c.5-.2.8-.9.8-1.5v-13.1h-3.6c-.8,0-1.8.1-2.6.5l1.1-2.4h12c1,0,2,0,2.9-.2-.5,1.2-1.8,2.2-2.6,2.2h-3.9v13.1c0,.6.3,1.2.8,1.5h-5,0ZM56.7,40.2c.4-.2.8-.7.8-1.5v-13.5c0-.7-.4-1.3-.8-1.5h5.1c-.4.2-.8.7-.8,1.5v13.5c0,.7.4,1.3.8,1.5h-5.1ZM71.6,36.5c0-3.1-7.4-3.8-7.4-8.8s2.9-4.1,5.5-4.1,2.8.2,3.9.6l.2,3.1c-.6-1.4-2.3-2.3-3.8-2.3s-2.4.6-2.4,2c0,3.2,7.5,4,7.5,8.8s-3,4.9-6,4.9-3.7-.3-5.1-1.2v-1.7c0-.6,0-1.3.2-2,.8,1.9,2.6,3.4,4.7,3.4s2.9-.7,2.9-2.5v-.2h-.2ZM87.4,40.2c.4-.2.7-.7.7-1.5v-6.1c-.9,0-2.1,0-3.5,0s-2.6,0-3.5,0v6.1c0,.7.4,1.3.7,1.5h-4.9c.4-.2.7-.7.7-1.5v-13.5c0-.7-.4-1.3-.7-1.5h4.9c-.4.2-.7.7-.7,1.5v5.5c.9,0,2.1.1,3.5.1s2.6,0,3.5-.1v-5.5c0-.7-.4-1.3-.7-1.5h4.9c-.4.2-.7.7-.7,1.5v13.5c0,.7.4,1.3.7,1.5h-4.9Z"></path><path class="st0" d="M110.3,40.2c.2-.2.3-.3.3-.6s0-.3-.2-.6c0,0-1.3-3.7-1.5-4.1-1,0-2.1,0-3.1,0s-2,0-3,0c0,.4-1.6,4-1.6,4-.2.5-.3.7-.3.8,0,.2.2.4.4.4h-3.3c.5-.2.9-.8,1.1-1.3l5.4-14v-.2c0-.4-.3-.8-.6-.9h4.3l5.5,15.2c.2.6.7,1.1,1.1,1.3h-4.7s.2,0,.2,0ZM106,26.9l-2.5,6.4c.7,0,1.5,0,2.3,0s1.7,0,2.6,0l-2.3-6.4h0ZM115.9,40.2c.4-.2.8-.7.8-1.5v-13.5c0-.7-.4-1.3-.8-1.5h5.1c-.4.2-.8.7-.8,1.5v13.5c0,.7.4,1.3.8,1.5h-5.1ZM128.6,25.2h-.8v5.7h.8c1.9,0,3.2-1,3.2-3s-1.4-2.8-3.2-2.8h0ZM137.3,40.3c-.6,0-1.3,0-1.9-.2-1.1-.3-2.7-2.9-3.3-3.8-1-1.6-2.2-3.8-4.3-3.8v6.3c0,.5.2,1.2.8,1.5h-4.9c.5-.3.8-.9.8-1.5v-13.5c0-.6-.2-1.2-.8-1.5h6c2.6,0,5.8,1,5.8,4.1s-2.4,3.9-4.1,3.9c3.5.2,5.7,8.1,9.2,8.1-1,.3-2.1.4-3.1.4,0,0-.2,0-.2,0ZM157.8,25.4l-5,14.8c-.4,0-.8,0-1-.3-.5-.5-1.3-2.5-1.6-3.2l-2.3-5.7-3.3,9.2h-1.5l-5.6-14.9c-.2-.6-.6-1.2-1.3-1.6h4.9c-.2.2-.3.3-.3.7s0,.4.1.6l3.6,9.8,3.9-11.1,4.3,10.7,3.2-9.7c0-.3.1-.4.1-.5s0-.3-.3-.5h3.2c-.6.3-1,1-1.2,1.6h.1ZM163.8,26.9l-2.5,6.4c.8,0,1.5,0,2.3,0s1.7,0,2.5,0l-2.3-6.4ZM168.1,40.2c.2-.2.3-.3.3-.6s0-.3-.1-.6c0,0-1.3-3.7-1.5-4.1-1,0-2.1,0-3.1,0s-2,0-2.9,0c-.1.4-1.6,4-1.6,4-.2.5-.3.7-.3.8,0,.2.2.4.4.4h-3.3c.5-.2.9-.8,1.1-1.3l5.5-14v-.2c0-.4-.3-.8-.6-.9h4.3l5.5,15.2c.2.6.7,1.1,1.1,1.3h-4.8,0ZM182.9,25.5l-3.9,6.8v6.4c0,.5.2,1.2.7,1.5h-4.8c.5-.3.7-1,.7-1.5v-6.4l-3.4-5.4c-.3-.5-1.7-2.9-3.4-2.9.5-.2,1.9-.4,2.8-.4,1.6,0,2.4.1,3.4,1.7l3.1,5c.3-.5,2.7-4.8,2.7-4.8.3-.5.5-.9.5-1.1s-.1-.4-.3-.5h3.5c-.7.3-1.3,1.1-1.6,1.7h0ZM192,36.5c0-3.1-7.4-3.8-7.4-8.8s2.9-4.1,5.5-4.1,2.8.2,3.9.6l.2,3.1c-.7-1.4-2.3-2.3-3.8-2.3s-2.4.6-2.4,2c0,3.2,7.5,4,7.5,8.8s-3,4.9-6,4.9-3.7-.3-5.1-1.2c0-.5-.1-1.1-.1-1.7s0-1.3.2-2c.8,1.9,2.6,3.4,4.7,3.4s2.9-.7,2.9-2.5v-.2h0Z"></path></g><path class="st3" d="M237.4,12.3c-2.8,2.7-8.8,5.1-11.7,6.2-4,1.5-5.8,2-8.1,2.8-2.5.8-7.6,2.4-7.6,2.4,10.6,3.2,18,4.1,18,4.1,0,0,3.5-1.1,9-4,3-1.5,4.4-2.5,5.5-3.5.4-.3,1.4-1.4,1.6-2.7v-1.2s0-.3-.1-.5c0-.2-.4-.9-1-1.3-.4-.3-1-1-3.3-1.9-.8-.3-2.1-.5-2.1-.5l-.2.2h0Z"></path><path class="st1" d="M244.2,16.9v-.5c0-.2-.2-.4-.3-.7-.2-.3-.4-.6-.8-.9-.3-.3-.6-.5-.9-.7-1.4-.9-3.3-1.5-4.9-1.7-2.6-.3-5.5-.3-5.8-.3h-8.6c-6.9.1-15.4.2-17.7.2-23,.1-33-.4-44.1-2.6-9.5-1.9-14.7-3.7-14.7-3.7,8.4-.3,57.1-2.3,66-2.5,5.8-.2,10-.2,13.3,0,1.7,0,3.3.2,5.3.6,1.8.3,3.4.8,4.3,1.2,2,.7,3.6,1.8,4.5,2.9,0,0,.2.2.6.7.4.5.8,1.2.9,1.4,1.2,1.8,1.8,3,2,3.4.2.4.4.9.6,1.3.2.4.3.7.3.9.1.4.2.9.2.9v.3l-.2-.2h0Z"></path><g><path class="st2" d="M47.1,52.8h2.2c1.3,0,2.1.7,2.1,1.8h0c0,1.3-1,1.9-2.2,1.9h-1.1v1.8h-1v-5.5ZM49.2,55.7c.7,0,1.2-.4,1.2-1h0c0-.7-.5-1-1.2-1h-1.1v2h1.1Z"></path><path class="st2" d="M53.2,52.8h2.5c.7,0,1.2.2,1.6.6.3.3.5.7.5,1.2h0c0,.9-.5,1.5-1.3,1.7l1.5,2.1h-1.2l-1.4-1.9h-1.2v1.9h-1v-5.5ZM55.6,55.6c.7,0,1.1-.4,1.1-.9h0c0-.6-.4-.9-1.1-.9h-1.4v1.9h1.4Z"></path><path class="st2" d="M59.7,52.8h4.1v.9h-3.1v1.4h2.8v.9h-2.8v1.5h3.2v.9h-4.1v-5.5Z"></path><path class="st2" d="M65.7,52.8h4.1v.9h-3.1v1.5h2.8v.9h-2.8v2.2h-1v-5.5Z"></path><path class="st2" d="M71.7,52.8h4.1v.9h-3.1v1.4h2.8v.9h-2.8v1.5h3.2v.9h-4.1v-5.5Z"></path><path class="st2" d="M77.8,52.8h2.5c.7,0,1.2.2,1.6.6.3.3.5.7.5,1.2h0c0,.9-.5,1.5-1.3,1.7l1.5,2.1h-1.2l-1.4-1.9h-1.2v1.9h-1v-5.5ZM80.2,55.6c.7,0,1.1-.4,1.1-.9h0c0-.6-.4-.9-1.1-.9h-1.4v1.9h1.4Z"></path><path class="st2" d="M84.3,52.8h2.5c.7,0,1.2.2,1.6.6.3.3.5.7.5,1.2h0c0,.9-.5,1.5-1.3,1.7l1.5,2.1h-1.2l-1.4-1.9h-1.2v1.9h-1v-5.5ZM86.7,55.6c.7,0,1.1-.4,1.1-.9h0c0-.6-.4-.9-1.1-.9h-1.4v1.9h1.4Z"></path><path class="st2" d="M90.7,52.8h4.1v.9h-3.1v1.4h2.8v.9h-2.8v1.5h3.2v.9h-4.1v-5.5Z"></path><path class="st2" d="M96.8,52.8h2.1c1.7,0,2.9,1.2,2.9,2.7h0c0,1.6-1.2,2.8-2.9,2.8h-2.1v-5.5ZM97.8,53.7v3.8h1.1c1.2,0,1.9-.8,1.9-1.9h0c0-1.1-.8-1.9-1.9-1.9h-1.1Z"></path><path class="st2" d="M106.9,52.8h2.2c1.3,0,2.1.7,2.1,1.8h0c0,1.3-1,1.9-2.2,1.9h-1.1v1.8h-1v-5.5ZM109,55.7c.7,0,1.2-.4,1.2-1h0c0-.7-.5-1-1.2-1h-1.1v2h1.1Z"></path><path class="st2" d="M114.4,52.8h.9l2.4,5.6h-1l-.6-1.3h-2.6l-.6,1.3h-1l2.4-5.6ZM115.8,56.2l-1-2.2-.9,2.2h1.9Z"></path><path class="st2" d="M119.4,52.8h2.5c.7,0,1.2.2,1.6.6.3.3.5.7.5,1.2h0c0,.9-.5,1.5-1.3,1.7l1.5,2.1h-1.2l-1.4-1.9h-1.2v1.9h-1v-5.5ZM121.8,55.6c.7,0,1.1-.4,1.1-.9h0c0-.6-.4-.9-1.1-.9h-1.4v1.9h1.4Z"></path><path class="st2" d="M127.3,53.7h-1.8v-.9h4.5v.9h-1.8v4.6h-1v-4.6Z"></path><path class="st2" d="M131.8,52.8h.9l3,3.8v-3.8h1v5.5h-.8l-3-3.9v3.9h-1v-5.5Z"></path><path class="st2" d="M138.8,52.8h4.1v.9h-3.1v1.4h2.8v.9h-2.8v1.5h3.2v.9h-4.1v-5.5Z"></path><path class="st2" d="M144.9,52.8h2.5c.7,0,1.2.2,1.6.6.3.3.5.7.5,1.2h0c0,.9-.5,1.5-1.3,1.7l1.5,2.1h-1.2l-1.4-1.9h-1.2v1.9h-1v-5.5ZM147.3,55.6c.7,0,1.1-.4,1.1-.9h0c0-.6-.4-.9-1.1-.9h-1.4v1.9h1.4Z"></path></g></svg>