<svg xmlns="http://www.w3.org/2000/svg" xmlns:xlink="http://www.w3.org/1999/xlink" id="Layer_1" viewBox="0 0 370.9 138"><defs><style>      .st0 {        fill: #e57c04;      }      .st1 {        fill: #e67700;      }      .st2 {        fill: #9e9500;      }      .st3 {        fill: #bdb54f;      }      .st4 {        fill: #e4e1b4;      }    </style></defs><path class="st1" d="M136.9,51.9c.3-1.5.5-2.9.9-4.4,2.1-7.6,6.5-13.4,13.9-16.3,5.6-2.2,11.4-2.3,17,.5,1,.5,1.2.2,1.1-.8V12.4c0-1.2.3-1.4,1.5-1.4,3.5,0,7,0,10.4,0,1,0,1.3.2,1.3,1.2v51.1c0,2.9.6,5.6,2.9,7.6.8.8,1.8,1.3,2.9,1.9-3.2,2.6-6.2,5.2-9.3,7.7q-1.7,1.4-3.6.3c-1.9-1.1-3.5-2.6-4.3-4.7-.3-.7-.5-.8-1.2-.4-1.9,1.1-3.9,2.1-5.7,3.3-2.9,1.9-5.9,2.1-9.2,1.6-9.1-1.3-16.5-8.2-18.2-18.6,0-.8,0-1.7-.5-2.4.1-2.5.1-5.1.1-7.7ZM169.9,55.7v-9.6c0-.5,0-1-.4-1.4-5.1-5.5-15.2-4.7-17.8,3.3-1.4,4.5-1.6,9.1-.1,13.7,1.3,3.8,3.8,6.4,8,7,3.4.4,6.6-.4,9.6-1.9.6-.3.7-.8.7-1.4v-9.7Z"></path><path class="st0" d="M221.1,126.3c-1.8-1.2-2.5-2.9-2.4-5.1,0-3.3,3.1-5.3,6.6-3.1v-4.1c0-.7.4-.7.9-.7s.9,0,.9.7v11.7c0,.2,0,.4,0,.6h-1.4v-1.2c-.7.5-1.2.8-1.7,1.2-1,0-1.9,0-2.8,0ZM225.3,121.9c0-.5,0-1-.2-1.5-.4-1.2-1.3-1.9-2.5-1.8-1.2.1-1.7,1-2,2-.3,1.1,0,2.2.5,3.2.8,1.3,2.4,1.5,3.4.3.6-.5.8-1.3.8-2.2Z"></path><path class="st1" d="M268.1,126.3c0-3.8,0-7.5-.1-11.3,0-.7.3-.8.8-.8h3.4c1.9.1,3,.9,3.3,2.2.4,1.7-.2,2.8-2,3.7,1.3,1.7,1.9,3.7,2.9,5.6.1.1-.1.3-.2.5h-1.7c-.7-1.5-1.3-3.1-2-4.6-.5-1-1.4-1-2.3-.9-.9.1-.4,1-.5,1.5-.2,1.3.3,2.7-.3,4-.3.1-.8.1-1.3.1ZM269.8,117.5c.2.8-.5,2,1.2,1.8,1.7-.1,2.8-.7,2.8-1.8s-.9-1.7-2.9-1.8c-1.7,0-.8,1.1-1.1,1.8Z"></path><path class="st0" d="M254.9,126.3c-2.2-1.5-2.8-3.6-2.2-6.1.7-2.8,3.5-3.9,5.9-2.3,0,.1.3.2.6.4v-4.1c0-.6.2-.8.8-.8s.9.1.9.8v11c0,.5,0,1-.7.9-.5-.1-1.3.2-.9-1.1-.8.7-1.4,1-2,1.3-.8,0-1.6,0-2.4,0ZM254.4,121.7c0,.8,0,1.5.6,2.2.9,1.3,2.6,1.3,3.5.1,1-1.3.9-3.4,0-4.7-1-1.2-2.7-1-3.5.2-.5.8-.5,1.5-.5,2.2Z"></path><path class="st0" d="M311.3,126.3c-.1-.4,0-.7.2-1.1,1.4-3.4,2.9-6.7,4.3-10.1.3-.7.6-.9,1.3-.9s1,.1,1.3.8c1.4,3.4,2.8,6.7,4.2,10,.2.4.4.8.2,1.2h-1.7c-.2-.6-.5-1.2-.7-1.9-.3-1-.8-1.4-1.9-1.3-1.1.1-2.2.1-3.3,0-.8-.1-1.3.2-1.5,1-.3,1.2-.8,2.2-2.2,2.2,0,.1-.1.1-.2.1ZM317,116c-.7,1.9-1.4,3.5-2,5.1-.2.5.1.6.5.6h3.1c.4,0,.7-.1.5-.6-.6-1.6-1.3-3.2-2.1-5.1Z"></path><path class="st0" d="M295.2,126.3c-.7-.6-1.6-1-1.7-2.1-.2-1.8.7-3,2.8-3.4.5-.1,1.1,0,1.7-.1.4-.1,1,.3,1.1-.3s-.1-1.3-.8-1.6c-1-.4-1.9-.3-2.9.2-.2.1-.5.2-.7.3-.5-1.1,0-1.6,1-1.9.7-.2,1.4-.3,2.1-.3,2,.1,3,1.1,3.1,3.2.1,1.9,0,3.7,0,5.6-.5,0-1.2.3-1.3-.1-.3-1.1-.6-.4-1-.1-.3.2-.7.4-1,.6-.8,0-1.6,0-2.4,0ZM297,124.9c.2,0,.5,0,.8-.1.8-.3,1.7-1.7,1.3-2.4-.4-.8-1.2-.3-1.8-.3s-.6.1-.9.2c-.7.3-1.3.7-1.2,1.6.3.7.9,1,1.8,1Z"></path><path class="st0" d="M211.7,126.3c-1.4-.9-2.7-1.9-2.9-3.7-.3-2.6.9-4.6,3.1-5.2,2.3-.6,4.5.4,5.3,2.5.9,2.4,0,4.9-2.1,6.1-.2.1-.5.1-.5.4-.9-.1-1.9-.1-2.9-.1ZM215.8,121.7c0-1.8-1.1-3.1-2.6-3.1s-2.7,1.3-2.7,3.2,1.1,3.2,2.7,3.2c1.6,0,2.6-1.4,2.6-3.3Z"></path><path class="st0" d="M201.7,126.3c0-.4-.6-.4-.9-.6-1.7-1.2-2.2-2.9-2-4.8.2-1.7,1.2-2.9,2.9-3.4,1.8-.5,3.5-.2,4.8,1.2,1.9,2.1,1.3,5.7-1.1,7.1-.3.2-.7.2-.9.5h-2.8ZM205.8,121.8c0-1.9-1-3.2-2.6-3.2s-2.7,1.3-2.7,3.1,1,3.2,2.6,3.3c1.6,0,2.7-1.3,2.7-3.2Z"></path><path class="st0" d="M337.7,126.3c-.3-.5-1-.7-1.3-1.3-.8-1.6-.1-3.3,1.6-4,1-.4,2-.4,3-.3.9.1.9-.3.7-1-.4-1.1-1.6-1.5-3.1-1-.4.1-.9.4-1.3.6-.4-1-.1-1.5.8-1.8.9-.3,1.8-.4,2.7-.3,1.5.2,2.3,1,2.6,2.4.3,2,.1,4,.1,6s0,.4-.3.4-1,.2-1.1-.1c-.2-1.1-.6-.4-1-.2-.3.2-.5.3-.8.5-.9.1-1.7.1-2.6.1ZM340.8,122c-.8-.1-1.6.1-2.2.4-.5.2-.8.7-.7,1.3s.4.9.9,1.1c1.3.4,2.7-.3,2.9-1.7.2-.7.2-1.4-.9-1.1Z"></path><path class="st0" d="M235.3,126.3c-.5-.5-1.2-.8-1.5-1.6-.7-1.9.5-3.6,2.8-3.9.6-.1,1.3-.1,1.9-.1.9,0,.9-.3.7-1-.4-.9-1.3-1.3-2.6-1.1-.3.1-.7.2-1,.3s-.6.7-.8,0c-.2-.4-.2-1,.4-1.2,1.5-.7,3-.9,4.5-.1,1.3.7,1.5,2,1.5,3.3v4.3c0,.3.2.8-.3.8s-1,.4-1.1-.4c0-.6-.3-.2-.5-.1-.4.3-.9.5-1.4.7-1,.1-1.8.1-2.6.1ZM238.1,122c-.7,0-1.3.1-2,.4-.5.3-.8.7-.7,1.4,0,.6.5,1,1.1,1.1,1.2.3,2.3-.3,2.6-1.5.5-1.2.3-1.4-1-1.4Z"></path><path class="st0" d="M279.6,126.3c-1.5-1.1-1.9-2.6-1.8-4.3.1-1.3,0-2.6,0-3.8s.4-.7.9-.7.8.1.8.7v4.3c.1,1.7.7,2.5,1.8,2.5s2.2-.9,2.5-2.4c.2-1.4.1-2.9.1-4.3s.3-.8.8-.8.9.1.8.8v7.8c-.7.1-1.6.4-1.7-.9-.6.7-1.3,1-2,1.2-.7-.1-1.4-.1-2.2-.1Z"></path><path class="st0" d="M243.4,126.3c-.3-2.8,0-5.6-.2-8.4,0-.6.4-.5.7-.5.6,0,1.1.1.8,1.2,1.4-1.3,2.7-1.7,4.2-1.2,1,.3,1.7,1,1.9,2,.4,2.1,0,4.2.2,6.3,0,.2-.2.4-.4.6h-1.2c-.2-2,0-4-.2-6,0-.9-.5-1.6-1.4-1.7-1-.2-1.8.2-2.3,1.1-.5.8-.6,1.7-.6,2.7s0,2.6,0,3.9h-.2c-.3-.3-.6-.3-1,0,0,0-.1,0-.2,0Z"></path><path class="st1" d="M191.4,126.3c0-3.8,0-7.5,0-11.3,0-.5,0-.8.7-.8h4.9c.6,0,.7.2.7.8s-.2.7-.8.7h-3c-.7,0-.9.2-.9.9,0,2.5,0,2.5,2.4,2.5h1.2c.6-.1.9.1.9.8s-.2.9-.8.8c-.8,0-1.7.1-2.5,0-1-.1-1.2.3-1.2,1.2,0,1.5.3,2.9-.2,4.4-.4,0-.9,0-1.3,0Z"></path><path class="st0" d="M325,126.3v-6.3c0-.9-.1-1.4-1.1-1.2-.5.1-1,0-.9-.7,0-.8.5-.7,1-.6.9.1,1.1-.2,1.1-1.1,0-2.3,1.1-3.4,3.2-3.2.5,0,.9,0,.9.7s-.2.7-.8.7c-1.3,0-2,1.4-1.5,2.6.2.5.8.2,1.2.3s1.1-.3,1.1.6-.6.8-1.1.7c-1.1-.1-1.2.3-1.2,1.3.1,1.7,0,3.3,0,5s.1.9-.2,1.2h-1.7Z"></path><path class="st0" d="M331.5,126.3v-6.6c0-.7-.2-1-.9-1s-.9.1-1-.7c0-.8.5-.7,1-.7,1,.1.9-.5.9-1.2,0-2.3,1.2-3.4,3.3-3.1.5.1.7.2.7.7s-.1.7-.7.7c-1.4.1-2,1-1.7,2.5.1.3.2.4.5.4h1.1c.4,0,.8,0,.8.6s-.2.9-.8.8c-1.6-.3-1.6.6-1.6,1.7.1,1.5,0,3,0,4.5s0,.9-.2,1.2c-.5.2-1,.2-1.4.2Z"></path><path class="st0" d="M356.6,126.3c-.9-.4-.9-1-.6-1.8.8.2,1.5.6,2.4.4.5-.1.9-.4,1-.9.2-.6-.2-.9-.6-1.2-.6-.4-1.3-.7-1.9-1-.9-.5-1.3-1.3-1.2-2.3.1-1.1.7-1.8,1.8-2.2.9-.3,1.8-.2,2.7,0,.8.1.6.6.5,1.1-.1.7-.5.4-.9.3-.1,0-.2-.1-.3-.1-.8-.1-1.6-.2-1.9.7-.3.9.6,1.2,1.2,1.6,0,0,.1,0,.1.1,3.1,1.5,3.3,3.3.6,5.3-.9,0-1.9,0-2.9,0Z"></path><path class="st0" d="M349.9,126.3v-8.1c0-.3-.2-.7.4-.7s1-.2,1.1.2c.3,1.1.6.3.9.1.6-.4,1.1-.5,1.8-.5s.7.4.7,1-.3.6-.7.6c-1.4,0-2.2.9-2.4,2.5-.1,1.2-.1,2.5-.1,3.7s-.1.9-.1,1.4c-.6-.2-1.1-.2-1.6-.2Z"></path><path class="st1" d="M303.4,126.3v-12c0-.6-.1-1,.8-1s.9.3.9,1v10.9c0,.4,0,.8-.2,1.1h-1.5Z"></path><path class="st0" d="M287.8,126.3v-7.9c0-.3-.3-.9.4-.9s1.1-.4,1.3.4c.1.6.4.1.5,0,.5-.4,1.1-.7,1.9-.7s.9.1.9.8-.2.8-.8.7c-1.3-.1-1.9.8-2.2,1.9-.4,1.4-.2,2.8-.2,4.2s.1,1-.2,1.5h-1.6Z"></path><path class="st0" d="M345.8,126.3c-.3-2.8-.1-5.5-.1-8.3s.5-.5.9-.6c.4,0,.8-.1.8.6-.1,2.8.2,5.6-.1,8.3h-1.5Z"></path><g><path class="st2" d="M111.7,104c-.5,1.4-.4,3-.7,4.4-1.2,8.1-3.9,15.6-8.1,22.6-.4.7-.8.8-1.5.7-18.3-2.6-33.1-11.2-43.9-26.3-5.1-7.1-8.4-14.9-10.2-23.4-.1-.3-.2-.5-.2-.8-.2-1.3-.4-2.7-.5-4-.6-4.8-.7-9.5-.2-14.3.5-5.6,1.9-11,3.8-16.3.2-.2.4-.2.7-.2,1.9,0,3.8,0,5.7.4,1.6.3,3.2.4,4.7,1.1-2.6,5.6-3.9,11.5-3.7,17.7,0,3.2.6,6.2,1.6,9.2.6,1.7.9,3.5,2.1,5,0,0,0,.2.1.3,4.6,8.8,11.6,14.9,21.2,18,.8.3,1.2,0,1.6-.7,2.2-4.7,3.3-9.6,3.4-14.8.1-4.6-.9-9-2.4-13.3,0-.5.4-.7.8-1,2.5-1.9,4.7-4,6.9-6.1,1.4-1.3,2.4-3,3.9-4.2.1,0,.2,0,.3.2,7.6,9,12.3,19.4,14.1,31,.2,1.5.2,3.1.7,4.5-.2,3.4-.2,6.8-.2,10.3Z"></path><path class="st3" d="M61.2,79.7c-1.2-1.4-1.5-3.3-2.1-5-1-3-1.6-6-1.6-9.2.4,0,.9,0,1.3,0,7.4,0,14.1-1.9,20.3-5.8,1.9-1.2,3.6-2.6,5.2-4.2,1.7-1.6,3.3-3.3,4.4-5.4.2-.2.4-.3.5-.5,4.2-6.3,6.3-13.3,6.2-20.9,0-.9-.5-1-1.2-1-5.1-.1-10,.7-14.7,2.7-4.4,1.9-8.5,4.5-11.7,8.1-2.9-.7-5.8-1.6-8.8-2.1-1.2-.2-2.4-.1-3.5-.6,3.5-5.8,7.9-10.8,13-15.2,9.3-7.8,19.9-12.5,31.9-14.3,1.3-.2,2.6,0,3.9-.5h5.3v1.2c1,5.4,1.2,10.8.7,16.2-.9,10.4-4.1,19.9-9.7,28.7-1.2,1.9-2.6,3.8-3.9,5.7-1.5,1.2-2.5,2.8-3.9,4.2-2.2,2.2-4.5,4.3-6.9,6.1-.4.3-.7.5-.8,1-.5-.2-.7.2-1.1.4-6.9,5.1-14.5,8.5-22.8,10.3Z"></path><path class="st4" d="M88.7,50.3c-1.1,2.1-2.7,3.8-4.4,5.4-1.6,1.5-3.3,2.9-5.2,4.2.1-.4-.2-.7-.4-1.1-2.6-3.1-5.8-5.6-9.3-7.6-2.6-1.5-5.2-2.7-8.2-3.3-1.5-.7-3.1-.9-4.7-1.1-1.9-.3-3.8-.4-5.7-.4s-.5,0-.7.2c-6.5,0-12.4,2.1-17.9,5.5-.4.3-.4.4-.1.7.2.3.4.6.7.8,2.7,2.9,5.7,5.6,9.3,7.5,1.4.7,2.7,1.8,4.4,1.8-.5,4.8-.4,9.5.2,14.3.2,1.3.4,2.7.5,4-7.4,0-14.6-1.3-21.6-3.9-7.1-2.7-13.5-6.4-19.2-11.4-2-1.8-3.9-3.7-5.8-5.6-.8-.7-.8-1.3,0-2.2,4.2-4.7,8.8-8.9,14.1-12.3,7-4.5,14.5-7.4,22.7-9,5.4-1,10.9-1,16.3-.9.6,0,1.2.3,1.9.2,1.1.5,2.3.4,3.5.6,3,.5,5.9,1.3,8.8,2.1.2,0,.3,0,.5,0,5.6,1.8,10.8,4.4,15.7,7.7,1.5,1.1,3.3,2.1,4.6,3.7Z"></path></g><path class="st1" d="M234,65.1v11.4c0,.7-.4.9-.8,1.2-2.5,1.4-5.3,2.1-8.2,2.6-6.3,1.3-12.6,1.3-18.8-.9-8.7-3.1-13.8-9.3-15.3-18.3-1.1-6-.7-11.9,1.9-17.5,4-8.4,10.7-13.1,19.9-14.1,5.2-.6,10.3,0,14.9,2.7,6.1,3.5,9.4,9,11.1,15.7.8,3,1,6.1,1.1,9.1,0,1-.3,1.3-1.3,1.3h-32.9q-1.4,0-1.1,1.3c1.7,6.4,6.4,9.9,13.2,9.6,5.8-.1,11.2-1.3,16.3-4.1ZM215.7,49.3h10c.9,0,1-.2.7-1-1.9-4.8-5.8-7.4-11.4-7.3-4.9.1-8.2,2.5-9.9,7.1-.3.8-.3,1.2.8,1.1,3.2,0,6.5,0,9.8,0Z"></path><path class="st1" d="M362.2,72.9c-3.5,2.9-6.9,5.7-10.2,8.5-.4.4-.8.3-1.3.1-2.6-1.1-4.7-2.8-5.7-5.5-.3-.7-.6-.6-1-.3-1.8,1-3.6,1.9-5.3,3.1-3.4,2.4-7.1,2.5-10.9,1.6-8.4-1.9-13.8-7-16.1-15.2-2.4-8.4-2-16.7,2.5-24.4,5.8-9.8,16.3-12.7,25.2-10.2,2.2.6,4.2,1.7,6.1,3,.5.4.9.4,1.5.2,2-.7,4-1.3,6-2.1,1.2-.5,2.2.2,3.2.5.5.2.3.9.3,1.3v28.9c0,1.1,0,2.2.2,3.3.3,3.4,2.1,5.8,5.5,7.2ZM343.2,55.7c0-2.6-.2-5.3.1-7.9.2-2.4-.8-3.8-2.7-4.8-.1-.1-.2-.1-.3-.2-4.7-2.9-12.8-2.2-15.3,5.2-1.5,4.6-1.6,9.3,0,13.9,1.1,3.3,3.2,5.7,6.7,6.6,3.9.9,7.5,0,11-1.8.6-.3.5-.8.5-1.3v-9.7Z"></path><path class="st1" d="M273.2,23.1c-2.5-.6-5-.9-7.5-.9s-5,1.7-5.2,4.9c0,1.5,0,3,0,4.4s.4.7.9.7h6.6c.7,0,.9.2.9.9v7.2c0,.7-.2.9-.9.9h-6.1c-1.1,0-1.4.2-1.4,1.4v36.9c0,.8-.2,1-1,1-3.9,0-7.8-.1-11.6,0-1,0-1.2-.4-1.2-1.2v-36.6c0-1.2-.3-1.6-1.5-1.5-1,.1-2.2.5-2.9-.2-.6-.6,0-1.8-.2-2.8v-5c0-.7.2-.9.9-.8h.2c1.1,0,2.5.5,3.2-.2.6-.7.2-2.1.2-3.2,0-2.7,0-5.4.9-8.1,2.4-6.5,8.8-10.5,15.9-9.9,2.9.2,5.7.5,8.5,1.4.9.3,1.3.7,1.2,1.7,0,2.8.1,5.9.1,9Z"></path><path class="st1" d="M276.1,56.4v-23c0-.9.2-1.2,1.1-1.2,3.9-.2,7.8-.5,11.7-.9.8,0,1.1.2,1,1-.1.9,0,1.8,0,2.8s.3.8.8.4c1-.7,2.1-1.3,3.2-2,4.2-2.6,8.8-3.7,13.7-2.7.9.2,1.1.5,1.1,1.3v12.9c0,.9-.2,1-1,.6-5.7-2.4-11.3-2.3-16.6,1.3-.9.6-1.2,1.3-1.2,2.4,0,9.9,0,19.7.1,29.6,0,1.3-.4,1.5-1.5,1.5-3.7-.1-7.4-.1-11.1,0-.9,0-1.1-.2-1.1-1.1-.2-7.7-.2-15.3-.2-22.9Z"></path><path class="st0" d="M141,107.6q-2.6.1-2.6-2.5v-8.5c0-.7.2-1,1-.9,1.6.1,3.3-.1,4.9.4,2.8.8,4.4,3.2,4.1,6.1-.3,3.3-2.1,5.1-5.2,5.4h-2.2ZM140.2,101.7v2.3c0,2.4,0,2.5,2.5,2.1,0,0,.2,0,.2-.1,1.7-.2,2.9-1,3.3-2.8.5-2,.2-3.8-1.4-5.1-1.1-.9-2.4-.9-3.8-.9s-.9.2-.8.8c0,1.3,0,2.5,0,3.7Z"></path><path class="st0" d="M193.5,99.9c2-1.7,3.6-1.6,5.2.3,1-1.1,2.2-1.7,3.7-1.3,1,.3,1.6.9,1.8,1.9.4,2.1,0,4.3.2,6.5,0,.7-.6.4-1,.5s-.6-.1-.6-.6v-4c0-.6,0-1.1-.2-1.7,0-.6-.3-1.1-1-1.2-.7-.2-1.4,0-1.8.6-.6.7-.8,1.6-.8,2.5v3.5c0,.7,0,1-.9,1s-.8-.5-.8-1v-4.4c0-.9-.2-1.8-1.2-2.1-1-.2-1.9.4-2.2,1.6-.4,1.6-.2,3.2-.2,4.8s.2,1.2-.8,1.2-.9-.5-.9-1.1v-6.6c0-.4-.3-1,.6-1,.5-.4,1.1-.4.9.6Z"></path><path class="st0" d="M322.5,103.3v-3.6c0-.3-.1-.7.4-.7s1-.2,1.1.2c.2.8.4.4.8.2,1.4-1,2.9-.9,4.1.4.4.4.6.3.9,0,1.1-1,2.3-1.2,3.6-.6,1.3.6,1.6,1.7,1.6,3v4.8c0,.7-.2.9-.9.9s-.8-.2-.8-.8v-4.2c0-1.6-.5-2.4-1.5-2.5-1.2-.1-1.9.7-2.2,2.2s-.1,2.9-.1,4.4-.2.9-.9.9-.9-.3-.9-.9v-4.5c0-.9-.1-1.8-1.2-2-1.1-.2-1.8.5-2.2,1.5s-.2.9-.2,1.4v3.6c0,.6,0,1.1-.8,1.1s-.9-.4-.9-1c.2-1.6,0-2.7,0-3.8Z"></path><path class="st0" d="M160.9,106.8v3.6c0,.6-.1.8-.8.8s-.9-.1-.9-.9v-10.5c0-.4-.1-.9.6-.9s1.3-.2,1,.9c2.3-1.4,4.1-1.4,5.5,0,1.7,1.8,1.6,5.7-.3,7.3-1.2,1.1-3.2,1-5.1-.3ZM165.7,103.1c0-.2,0-.6-.1-.9-.3-1.1-.7-2-1.9-2.1-1.2-.1-2,.4-2.5,1.6-.1.3-.2.6-.3.9-.2,1.3.1,2.5,1.1,3.3.7.6,1.5.7,2.2.3,1.3-.6,1.5-1.8,1.5-3.1Z"></path><path class="st0" d="M265,101.6v-4.9c0-.8.2-1.1,1-1,1.6.1,3.3.1,4.9,0,.7,0,.9.2.9.9s-.4.7-.9.7h-3.2c-.6,0-.8.2-.8.8q-.1,2.6,2.4,2.6h1.2c.6,0,.9.1.9.8s-.2.9-.9.9c-.8-.1-1.7,0-2.5,0s-.6-.1-.7,0c-.8.9-.2,2.1-.4,3.1-.1.7.4.6.9.6h3.2c.5,0,.8.1.8.7s-.1.9-.8.9h-5.2c-.7,0-.9-.2-.9-.9.2-1.8.1-3.5.1-5.2Z"></path><path class="st0" d="M343.9,105.7c.1,1.7.1,1.8-1.4,2-1.8.2-3.7.2-4.9-1.5s-1.2-3.7-.3-5.6c.9-1.7,3-2.4,5-1.8,1.5.5,2.6,2.6,2.4,4.3-.1.6-.4.5-.8.5h-4.6c-.9,0-.9.4-.7,1,.4,1,1.4,1.8,2.6,1.7.4,0,.9-.1,1.3-.2.5,0,.9-.2,1.4-.4ZM340.6,102.4h.7c.5-.1,1.3.4,1.4-.3.1-.7-.4-1.4-1.1-1.7-.9-.4-1.7-.3-2.4.3-.4.4-.8.9-.6,1.5.2.5.8.2,1.3.3.3-.1.5-.1.7-.1Z"></path><path class="st0" d="M156.8,105.7c.5,1.4-.2,1.9-1.3,2-1.9.2-3.8.3-5-1.5-1.2-1.7-1.2-3.6-.3-5.5.8-1.7,3-2.5,4.9-1.9,1.6.5,2.7,2.6,2.5,4.4-.1.6-.5.4-.8.4h-4.6c-.8,0-.8.3-.6.9.4,1.1,1.6,1.9,2.8,1.8.9.1,1.6-.2,2.4-.6ZM153.6,102.4h1.7c.4,0,.6-.2.4-.6-.2-.8-.6-1.4-1.4-1.6-.8-.2-1.6-.1-2.2.6-.3.4-.8.9-.5,1.4.2.5.8.2,1.2.2.3,0,.6,0,.8,0Z"></path><path class="st0" d="M213.4,105.7c.2,1.7.2,1.8-1.4,2-1.7.3-3.5.3-4.8-1.2-1.3-1.6-1.3-3.4-.7-5.2.7-2.1,2.8-3,4.9-2.5,1.6.4,2.9,2.4,2.7,4.3,0,.6-.4.5-.8.5h-4.7c-.6,0-.8.2-.6.8.5,1.5,2,2.3,3.8,1.8.5,0,1-.3,1.6-.5ZM210,102.4h.7c.5-.1,1.3.4,1.4-.4,0-.7-.3-1.4-1.1-1.7-.9-.4-1.7-.3-2.4.4-.4.4-.8.9-.7,1.5.2.5.8.2,1.3.2h.8Z"></path><path class="st0" d="M169.7,100.8c-.4-1.1,0-1.6.9-1.8.9-.3,1.8-.4,2.7-.2,1.5.2,2.4,1,2.5,2.6.2,1.9,0,3.8,0,5.7s0,.5-.3.5-.9.2-1.1-.2c-.3-.7-.5-.3-.9-.1-1.1.7-2.2.7-3.3.3-1.1-.3-1.7-1.1-1.8-2.2-.1-1.1.3-2,1.3-2.6,1.1-.6,2.3-.7,3.5-.6,1.1.1,1-.4.7-1.1-.4-1-1.5-1.3-2.9-.9-.4.2-.8.4-1.4.6ZM172.7,103.5c0,0-.5.1-.9.2-.9.2-1.5.6-1.3,1.6s1,1.2,1.9,1.1c.9-.1,1.5-.5,1.8-1.4.4-1.2.2-1.5-1.5-1.5Z"></path><path class="st0" d="M311.1,103.3c0,2.6-1.8,4.5-4.4,4.5s-4.5-1.9-4.5-4.5,1.8-4.6,4.5-4.6c2.6,0,4.4,1.8,4.4,4.6ZM304.1,103.3c0,1.9,1.1,3.2,2.7,3.1,1.5,0,2.6-1.3,2.6-3.1s-1.1-3.2-2.7-3.2-2.7,1.3-2.6,3.2Z"></path><path class="st0" d="M252.1,103.3c0,2.6-1.8,4.5-4.4,4.5s-4.5-1.9-4.5-4.6,1.8-4.5,4.5-4.5c2.7,0,4.4,1.8,4.4,4.6ZM247.8,100.1c-1.6,0-2.7,1.3-2.7,3.1s1.1,3.2,2.6,3.2,2.6-1.3,2.7-3.1c0-1.8-1.1-3.2-2.6-3.2Z"></path><path class="st0" d="M275.6,100c.7-.6,1.3-1,2-1.2,2.1-.5,3.8.6,4,2.7.2,1.8.1,3.7.1,5.5s-.5.6-.9.6-.9,0-.8-.7v-4.4c-.1-1.7-.6-2.4-1.7-2.4-1.3-.1-2.2.7-2.5,2.3-.3,1.4-.1,2.9-.1,4.3s-.1,1-.9,1-.8-.3-.8-.9v-6.8c0-.4-.2-1,.6-1,.6-.1,1.2-.1,1,1Z"></path><path class="st0" d="M217.4,99.8c.7-.4,1.1-.8,1.8-1,2.2-.6,4,.5,4.2,2.9.2,1.7,0,3.5,0,5.3,0,.7-.4.6-.9.6s-.9.1-.9-.6v-4.3c0-1.7-.6-2.5-1.7-2.6-1.3-.1-2.4.8-2.5,2.4,0,1.4,0,2.8,0,4.2s0,1-.8,1-.9-.4-.8-1v-6.6c0-.4-.4-1,.5-1.1.6,0,1.2,0,1.1.8Z"></path><path class="st1" d="M347.9,100c.8-.8,1.5-1.2,2.3-1.3,2-.2,3.5.8,3.7,2.8.2,1.8,0,3.7.1,5.5,0,.8-.5.5-.9.6-.4,0-.8,0-.8-.6v-4.3c0-1.7-.5-2.5-1.7-2.6-1.4-.1-2.4.8-2.6,2.4-.1,1.3-.1,2.6-.1,3.9s.2,1.2-.8,1.2-.9-.5-.9-1.1v-6.5c0-.4-.4-1,.4-1.1.8,0,1.5,0,1.3,1.1Z"></path><path class="st1" d="M312.7,103.3v-3.5c0-.3-.2-.8.4-.8s1-.3,1.2.2c.2.7.4.5.8.2.4-.4,1-.5,1.5-.6,2.1-.4,3.7.8,3.8,3.1.1,1.7,0,3.4.1,5.1,0,.7-.3.7-.8.7s-.9,0-.9-.7c.1-1.4,0-2.9,0-4.3s-.6-2.4-1.7-2.5c-1.3-.1-2.4.8-2.6,2.3-.1,1.4-.1,2.9-.1,4.3s-.1.9-.8.9-.9-.2-.9-.9v-3.5Z"></path><path class="st0" d="M238.4,103.9c0-.7,0-1.4,0-2,0-1.1,0-1.9-1.4-1.6-.6.1-.6-.3-.6-.7s.2-.7.7-.6c1.3.3,1.4-.4,1.4-1.5,0-2,1.4-3.1,3.4-2.8.4.1.7.2.6.7,0,.4,0,.7-.6.8-1.5.1-2,.9-1.8,2.4,0,.4.2.5.5.5h1.1c.4,0,.8,0,.8.6s-.2.8-.8.7c-1.5-.3-1.7.5-1.6,1.7,0,1.6,0,3.2,0,4.8s-.3.9-.9.9-.8-.3-.8-.8c0-1.2,0-2.1,0-3.1Z"></path><path class="st0" d="M357.3,103.4v-1.2c0-1,.2-2.2-1.5-1.9-.5.1-.5-.4-.5-.7,0-.5.2-.7.6-.6,1.1.2,1.5-.2,1.4-1.3-.1-1,.7-1,1.2-1.1.7,0,.4.7.4,1-.2,1.2.3,1.6,1.4,1.4.5-.1.9-.1.9.7s-.5.8-1,.7c-1.2-.2-1.5.4-1.4,1.5.1,1,0,2.1,0,3.1.1,1.3.5,1.6,1.7,1.5.3,0,.7-.3.7.2s.2.8-.4,1.1c-1.9.7-3.6-.4-3.7-2.5.2-.7.2-1.3.2-1.9Z"></path><path class="st0" d="M226.7,103.3v-1.3c0-1.1,0-2-1.4-1.7-.5.1-.6-.3-.6-.7s0-.7.6-.6c1.2.2,1.6-.3,1.4-1.4,0-.9.7-.9,1.2-1,.8-.1.4.6.4,1,0,1.1.2,1.6,1.4,1.4.4-.1,1-.2,1,.6s-.5.8-1,.7c-1.1-.2-1.4.3-1.4,1.4,0,1,0,2.1,0,3.1,0,1.3.5,1.7,1.8,1.6.3,0,.7-.2.7.3s0,.8-.4,1c-1.7.7-3.6-.4-3.7-2.2v-2.2h0Z"></path><path class="st0" d="M286.8,105.9c.7-2.2,1.4-4.2,2.1-6.1.1-.3.1-.8.6-.8s.9-.1,1.2.1c.3.2,0,.6-.2,1-.8,2.2-1.6,4.3-2.3,6.5-.2.7-.5,1.1-1.4,1.1s-1.2-.3-1.4-1.1c-.7-2.2-1.6-4.3-2.3-6.5-.1-.3-.7-.9,0-1.1.6-.1,1.4-.5,1.7.7.5,2,1.2,3.9,2,6.2Z"></path><path class="st0" d="M189.4,106.4c.3,0,.7-.4.7.3s0,.9-.6,1.1c-2,.4-3.4-.6-3.5-2.7v-3.8c0-.7,0-1.1-1-1-.4.1-1,.2-1-.6s.4-.8.9-.7c.8.1,1.1-.2,1.1-1s-.2-.9.3-1.1c.4-.2.8-.5,1.2-.3.3.2.2.7.2,1-.2,1.2.3,1.6,1.4,1.4.5-.1.9-.1.9.7s-.5.7-1,.6c-1.1-.2-1.4.3-1.3,1.4,0,1.1,0,2.2,0,3.2,0,1.1.6,1.6,1.7,1.5Z"></path><path class="st0" d="M298,100.1c.9-1,1.7-1.4,2.8-1.4.7.1.6.5.7,1,0,.7-.3.5-.8.5-1.3,0-2.2.8-2.4,2.3-.1,1.4-.1,2.8-.1,4.2s-.2.9-.9.9-.8-.3-.8-.9v-6.9c0-.4-.1-.9.6-.9.6,0,1.2-.1.9,1.2Z"></path><path class="st0" d="M178.2,103.2v-3.5c0-.3-.2-.8.4-.8s1-.3,1.1.3c.2.8.5.2.7.1.5-.5,1.2-.6,1.9-.6s.8.3.8.9-.3.6-.8.6c-1.2,0-1.9.7-2.3,2-.4,1.5-.2,3-.2,4.5s0,.9-.8.9-.9-.3-.8-.9c0-1.1,0-2.3,0-3.5Z"></path><path class="st0" d="M253.7,103.1v-3.5c0-.3,0-.7.4-.7s1-.3,1.1.3c.2.8.4.3.7.1.5-.4,1.1-.7,1.9-.7s.9.1.9.8-.2.7-.8.7c-1.2,0-1.9.8-2.2,1.9-.4,1.5-.2,3-.2,4.5s0,1.1-.8,1.1-.9-.4-.8-1c-.2-1.1-.2-2.3-.2-3.5Z"></path><path class="st0" d="M294,103.3v3.7c0,.7-.3.7-.8.7s-.9.1-.9-.6v-7.4c0-.8.5-.6,1-.7.6-.1.7.2.7.8v3.5Z"></path><path class="st0" d="M346.6,115.5c-.7.1-1,0-1-.8s.1-1.1,1-1.1,1,.3,1,1-.2,1.1-1,.9Z"></path><path class="st0" d="M293.1,97c-.9.2-.8-.4-.8-1-.1-.9.4-.9,1.1-.9s.8.4.9,1c0,1-.5,1-1.2.9Z"></path></svg>