<svg xmlns="http://www.w3.org/2000/svg" id="Layer_1" viewBox="0 0 924 244.33"><defs><style>.cls-1{fill:#35a8e0;}.cls-1,.cls-2,.cls-3,.cls-4{stroke-width:0px;}.cls-2{fill:#1d2362;}.cls-3{fill:#1d70b7;}.cls-4{fill:#fff;}</style></defs><path class="cls-1" d="m229.33,189.2l-.03-.13c-4.94-6.21-10.51-13.22-16.51-20.77-7.85,3.46-18.79,8.35-19.84,9.14-.06.04-.09.11-.12.18l-4.81,12.03c-.46.93-1.84.77-2.08-.25,0,0-.34-9.74-2.07-12.77-1.86-2.95-10.31-7.82-10.31-7.82-.79-.68-.29-1.98.76-1.95l12.89,1.39c.07,0,.15,0,.21-.02,1.1-.51,9.24-6.84,15.79-11.99-35.53-44.68-80.63-101.43-97.56-122.83-2.56-3.23-4.47-5.65-5.61-7.11t-.03-.03c-7.44-7.83-14.79-13.92-28.44-15.24-13.65-1.32-40.71-3.9-40.71-3.9-5.06-.53-7.39,2.06-6.58,6.56.12.68,17.82,94.17,17.82,94.17l18.96,99.77c24.57,3.28,56.69-3.9,87.41-21.51,5.68-3.26,12.79-6.84,18-10.6.14-.1.3-.16.44-.23,2.62,1.64,6.97,4.56,8.25,6.57,1.14,1.99,1.68,6.89,1.91,10.01-8.18,5.64-15.85,10.58-25.93,15.25-30.67,14.22-61.78,19.62-86.97,16.85l.91,4.81c.02.06.02.11.03.16.62,2.97,3.24,5.19,6.39,5.22h.13c26.75-.03,142.5-.14,169.76-.08h.06c6.31-.02,11.42-5.14,11.42-11.45,0-2.43-.75-4.7-2.04-6.53-.03-.05-.06-.08-.1-.13-.1-.1-.19-.22-.3-.37-.14-.19-.29-.38-.45-.57-.03-.03-.06-.06-.08-.1-2.63-3.31-9.63-12.11-19.24-24.19-.62-.25-1.14-.78-1.31-1.56Z"></path><path class="cls-1" d="m229.33,189.2c.18.78.69,1.31,1.31,1.56-.43-.55-.9-1.13-1.34-1.69l.03.13Z"></path><path class="cls-3" d="m187.2,168.25l-12.89-1.39c-1.04-.03-1.55,1.27-.76,1.95,0,0,8.45,4.87,10.31,7.82,1.73,3.03,2.07,12.77,2.07,12.77.23,1.02,1.61,1.18,2.08.25l4.81-12.03c.03-.07.06-.13.12-.18,1.05-.79,11.99-5.68,19.84-9.14-3.09-3.89-6.3-7.92-9.59-12.06-6.55,5.15-14.69,11.48-15.79,11.99-.06.03-.14.03-.21.02Z"></path><path class="cls-3" d="m151.13,207.14c10.08-4.67,17.75-9.62,25.93-15.25-.23-3.12-.77-8.02-1.91-10.01-1.27-2.02-5.62-4.93-8.25-6.57-.15.08-.3.13-.44.23-5.21,3.75-12.32,7.34-18,10.6-30.72,17.61-62.84,24.79-87.41,21.51l3.11,16.35c25.19,2.78,56.3-2.63,86.97-16.85Z"></path><path class="cls-1" d="m705.38,60.26c-.23-.23-.45-.53-.72-.87l.68.79s.04.04.04.08Z"></path><path class="cls-2" d="m264.31,88.67c-7.37,2.57-15.97,7.6-32.72,18.62l-43.9-.27c-2.14.11-2.9,2.88-1.12,4.07l19.66,13.02c1.26.83,1.67,2.02.15,3.59,0,0-19.89,20.48-21.64,21.58-.06.04-.13.05-.21.05l-12.96.26c-1.04.1-1.37,1.45-.5,2.03,0,0,9,3.76,11.22,6.44,2.1,2.78,3.68,12.4,3.68,12.4.36.98,1.75.97,2.09-.02l3.24-12.55c.02-.07.04-.14.09-.19,1.47-1.45,25.99-16.08,25.99-16.08,1.88-1.12,2.94-.44,3.46.98l8.14,22.13c.74,2.01,3.62,1.91,4.22-.15l9.85-42.78c14.58-13.76,21.46-20.96,25.66-27.54,1.27-1.99,1.78-3.58.62-5.04-1.15-1.47-2.81-1.33-5.05-.55Z"></path><path class="cls-2" d="m174.33,164.38c-1.52-1.84-6.2-4.17-9.02-5.47-.14.1-.29.17-.41.29-4.69,4.39-11.28,8.85-16.5,12.8-47.53,36.01-102.76,43.15-123.36,15.96-10.96-14.47-9.9-35.74.65-57.9.41-.87-.82-1.56-1.33-.74-15.65,24.82-19.72,50.02-8.3,68.18,20.33,32.29,81.96,30.06,137.66-5,9.4-5.92,16.38-11.8,23.78-18.43-.63-3.06-1.79-7.85-3.17-9.69Z"></path><ellipse class="cls-4" cx="81.51" cy="116.33" rx="11.65" ry="16.47" transform="translate(-58.58 92.8) rotate(-45.45)"></ellipse><ellipse class="cls-4" cx="70.26" cy="140.04" rx="9.22" ry="12.51" transform="translate(-85.98 151.75) rotate(-67.64)"></ellipse><ellipse class="cls-4" cx="106.37" cy="100.87" rx="11.65" ry="16.47" transform="translate(-26.3 38.53) rotate(-18.31)"></ellipse><ellipse class="cls-4" cx="132.61" cy="101.26" rx="12.51" ry="9.22" transform="translate(22.59 226.7) rotate(-86.11)"></ellipse><path class="cls-4" d="m151.22,130.58c.85,1.37,1.55,2.8,2.07,4.29,1.87,6.46-.68,13.65-6.7,17.39-3.4,2.12-7.31,2.75-10.95,2.07-.35-.1-.71-.18-1.06-.24-3.64-.68-7.55-.04-10.95,2.07-3.16,1.97-5.36,4.88-6.47,8.16,0,0,0,.02-.02.03-.26.78-.46,1.59-.59,2.39v.04c-1.12,3.28-3.33,6.22-6.5,8.19-6.65,4.14-15.23,2.61-20.08-3.27-.23-.28-.45-.58-.67-.87-.19-.27-.37-.54-.55-.82-.1-.13-.19-.28-.28-.42-8.32-13.38-1.43-32.74,15.36-43.61.24-.15.47-.31.73-.47s.5-.3.74-.45c16.51-9.86,35.99-8.05,44.85,3.97.08.09.15.19.23.28.29.4.57.83.83,1.25Z"></path><path class="cls-4" d="m117.13,164.36c-.13.82-.32,1.61-.59,2.39.13-.8.33-1.62.59-2.39Z"></path><path class="cls-4" d="m153.29,134.87c-.52-1.49-1.22-2.92-2.07-4.29-.26-.42-.54-.84-.83-1.25.42.51.82,1.06,1.17,1.63.77,1.24,1.35,2.56,1.73,3.91Z"></path><path class="cls-2" d="m282.89,127.63h45.71c26.97,0,44.34,13.87,44.34,37.48v.31c0,25.14-19.35,38.39-45.86,38.39h-14.63v30.47h-29.56v-106.66Zm43.58,53.03c10.51,0,16.91-5.48,16.91-13.87v-.3c0-9.14-6.4-14.02-17.06-14.02h-13.87v28.19h14.02Z"></path><path class="cls-2" d="m379.21,127.63h85.78v25.14h-56.53v16.15h51.19v23.31h-51.19v16.91h57.29v25.14h-86.54v-106.66Z"></path><path class="cls-2" d="m505.44,153.54h-32v-25.91h93.55v25.91h-32v80.75h-29.56v-80.75Z"></path><path class="cls-1" d="m602.79,126.87h28.49l45.4,107.42h-31.69l-7.77-19.05h-41.14l-7.62,19.05h-31.08l45.4-107.42Zm25.9,65.37l-11.88-30.32-12.04,30.32h23.92Z"></path><path class="cls-1" d="m682.14,127.63h29.71v106.66h-29.71v-106.66Z"></path><path class="cls-1" d="m720.35,127.63h50.43c16.3,0,27.58,4.27,34.74,11.58,6.25,6.09,9.45,14.32,9.45,24.84v.3c0,16.3-8.69,27.12-21.94,32.76l25.44,37.17h-34.13l-21.48-32.3h-12.95v32.3h-29.56v-106.66Zm49.06,51.19c10.05,0,15.85-4.88,15.85-12.64v-.31c0-8.38-6.09-12.64-16-12.64h-19.35v25.59h19.5Z"></path><circle class="cls-2" cx="875.37" cy="143.14" r="40.4"></circle><path class="cls-4" d="m848.93,145.71v-14.66h7.35v14.51c0,3.77,1.9,5.56,4.81,5.56s4.81-1.71,4.81-5.37v-14.7h7.35v14.47c0,8.43-4.81,12.12-12.23,12.12s-12.09-3.77-12.09-11.94Z"></path><path class="cls-4" d="m877.56,131.05h7.24v10.59l8.99-10.59h8.58l-9.88,11.23,10.22,14.88h-8.69l-6.57-9.7-2.65,2.95v6.75h-7.24v-26.11Z"></path></svg>