<svg xmlns="http://www.w3.org/2000/svg" xmlns:xlink="http://www.w3.org/1999/xlink" viewBox="0 0 924 500.4"><defs><style>      .st0 {        fill: none;      }      .st1 {        fill: #2e5c99;      }      .st2 {        fill: #ce210f;      }      .st3 {        fill: #1d2362;      }      .st4 {        fill: url(#linear-gradient);      }      .st5 {        fill: #fff;      }      .st6 {        fill: #1d70b7;      }      .st7 {        fill: #35a8e0;      }      .st8 {        display: none;      }      .st9 {        clip-path: url(#clippath);      }    </style><clipPath id="clippath"><rect class="st0" x="8.3" y="7.8" width="904.7" height="226.8"></rect></clipPath><linearGradient id="linear-gradient" x1="806.3" y1="-388.2" x2="768.4" y2="-454.2" gradientTransform="translate(0 -26.7) scale(1 -1)" gradientUnits="userSpaceOnUse"><stop offset="0" stop-color="#e6ebef"></stop><stop offset="0" stop-color="#bbcee5"></stop><stop offset=".2" stop-color="#85a9d8"></stop><stop offset=".3" stop-color="#5d8fcf"></stop><stop offset=".4" stop-color="#457ec9"></stop><stop offset=".4" stop-color="#3c78c7"></stop><stop offset=".9" stop-color="#2e5c99"></stop></linearGradient></defs><g id="Logos"><g><path class="st7" d="M226.8,189.2h0c-4.9-6.3-10.5-13.4-16.5-20.9-7.9,3.5-18.8,8.4-19.8,9.1,0,0,0,.1-.1.2l-4.8,12c-.5.9-1.8.8-2.1-.2,0,0-.3-9.7-2.1-12.8-1.9-2.9-10.3-7.8-10.3-7.8-.8-.7-.3-2,.8-1.9l12.9,1.4h.2c1.1-.5,9.2-6.8,15.8-12-35.5-44.7-80.6-101.4-97.6-122.8-2.6-3.2-4.5-5.6-5.6-7.1q-.8-1,0,0c-7.4-7.8-14.8-13.9-28.4-15.2s-40.7-3.9-40.7-3.9c-5.1-.5-7.4,2.1-6.6,6.6.1.7,17.8,94.2,17.8,94.2l19,99.8c24.6,3.3,56.7-3.9,87.4-21.5,5.7-3.3,12.8-6.8,18-10.6.1-.1.3-.2.4-.2,2.6,1.6,7,4.6,8.2,6.6,1.1,2,1.7,6.9,1.9,10-8.2,5.6-15.9,10.6-25.9,15.2-30.7,14.2-61.8,19.6-87,16.9l.9,4.8v.2c.6,3,3.2,5.2,6.4,5.2h0c26.8,0,142.5-.1,169.8,0h0c6.3,0,11.4-5.1,11.4-11.4s-.8-4.7-2-6.5h-.1c-.1-.2-.2-.3-.3-.5s-.3-.4-.4-.6h0c-2.6-3.4-9.6-12.2-19.2-24.3-.6-.2-1.1-.8-1.3-1.6h0l-.2-.4Z"></path><path class="st7" d="M226.8,189.2c.2.8.7,1.3,1.3,1.6-.4-.6-.9-1.1-1.3-1.7h0Z"></path><path class="st6" d="M184.7,168.2l-12.9-1.4c-1,0-1.6,1.3-.8,1.9,0,0,8.4,4.9,10.3,7.8,1.7,3,2.1,12.8,2.1,12.8.2,1,1.6,1.2,2.1.2l4.8-12s0-.1.1-.2c1.1-.8,12-5.7,19.8-9.1-3.1-3.9-6.3-7.9-9.6-12.1-6.6,5.1-14.7,11.5-15.8,12h-.2,0Z"></path><path class="st6" d="M148.6,207.1c10.1-4.7,17.8-9.6,25.9-15.2-.2-3.1-.8-8-1.9-10-1.3-2-5.6-4.9-8.2-6.6-.1,0-.3.1-.4.2-5.2,3.8-12.3,7.3-18,10.6-30.7,17.6-62.8,24.8-87.4,21.5l3.1,16.4c25.2,2.8,56.3-2.6,87-16.9h-.1Z"></path><path class="st7" d="M702.9,60.3c-.2-.2-.5-.5-.7-.9l.7.8h0Z"></path><path class="st3" d="M261.8,88.7c-7.4,2.6-16,7.6-32.7,18.6l-43.9-.3c-2.1,0-2.9,2.9-1.1,4.1l19.7,13c1.3.8,1.7,2,.1,3.6,0,0-19.9,20.5-21.6,21.6h-.2l-13,.3c-1,.1-1.4,1.4-.5,2,0,0,9,3.8,11.2,6.4,2.1,2.8,3.7,12.4,3.7,12.4.4,1,1.8,1,2.1,0l3.2-12.6v-.2c1.5-1.4,26-16.1,26-16.1,1.9-1.1,2.9-.4,3.5,1l8.1,22.1c.7,2,3.6,1.9,4.2-.1l9.9-42.8c14.6-13.8,21.5-21,25.7-27.5,1.3-2,1.8-3.6.6-5-1.1-1.5-2.8-1.3-5-.6h0Z"></path><path class="st3" d="M171.8,164.4c-1.5-1.8-6.2-4.2-9-5.5-.1.1-.3.2-.4.3-4.7,4.4-11.3,8.9-16.5,12.8-47.5,36-102.8,43.1-123.4,16-11-14.5-9.9-35.7.6-57.9.4-.9-.8-1.6-1.3-.7-15.6,24.8-19.7,50-8.3,68.2,20.3,32.3,82,30.1,137.7-5,9.4-5.9,16.4-11.8,23.8-18.4-.6-3.1-1.8-7.9-3.2-9.7h0Z"></path><ellipse class="st5" cx="79" cy="116.2" rx="11.7" ry="16.5" transform="translate(-59.2 91.1) rotate(-45.5)"></ellipse><ellipse class="st5" cx="67.9" cy="140.1" rx="9.2" ry="12.5" transform="translate(-87.5 149.4) rotate(-67.6)"></ellipse><ellipse class="st5" cx="103.9" cy="100.9" rx="11.7" ry="16.5" transform="translate(-26.4 37.7) rotate(-18.3)"></ellipse><ellipse class="st5" cx="130.2" cy="101.3" rx="12.5" ry="9.2" transform="translate(20.3 224.3) rotate(-86.1)"></ellipse><path class="st5" d="M148.7,130.6c.9,1.4,1.6,2.8,2.1,4.3,1.9,6.5-.7,13.6-6.7,17.4-3.4,2.1-7.3,2.8-10.9,2.1-.4-.1-.7-.2-1.1-.2-3.6-.7-7.6,0-10.9,2.1-3.2,2-5.4,4.9-6.5,8.2h0c-.3.8-.5,1.6-.6,2.4h0c-1.1,3.3-3.3,6.3-6.5,8.2-6.7,4.1-15.2,2.6-20.1-3.3-.2-.3-.4-.6-.7-.9-.2-.3-.4-.5-.6-.8,0-.1-.2-.3-.3-.4-8.3-13.4-1.4-32.7,15.4-43.6.2-.2.5-.3.7-.5s.5-.3.7-.4c16.5-9.9,36-8.1,44.8,4,0,0,.1.2.2.3.3.4.6.8.8,1.2h.2Z"></path><path class="st5" d="M114.6,164.4c0,.8-.3,1.6-.6,2.4,0-.8.3-1.6.6-2.4Z"></path><path class="st5" d="M150.8,134.9c-.5-1.5-1.2-2.9-2.1-4.3-.3-.4-.5-.8-.8-1.2.4.5.8,1.1,1.2,1.6.8,1.2,1.4,2.6,1.7,3.9h0Z"></path><path class="st3" d="M280.4,127.6h45.7c27,0,44.3,13.9,44.3,37.5v.3c0,25.1-19.4,38.4-45.9,38.4h-14.6v30.5h-29.6v-106.7h.1ZM324,180.7c10.5,0,16.9-5.5,16.9-13.9v-.3c0-9.1-6.4-14-17.1-14h-13.9v28.2h14.1Z"></path><path class="st3" d="M376.7,127.6h85.8v25.1h-56.5v16.1h51.2v23.3h-51.2v16.9h57.3v25.1h-86.5v-106.7h0v.2Z"></path><path class="st3" d="M502.9,153.5h-32v-25.9h93.5v25.9h-32v80.8h-29.6v-80.8h0Z"></path><path class="st7" d="M600.3,126.9h28.5l45.4,107.4h-31.7l-7.8-19.1h-41.1l-7.6,19.1h-31.1l45.4-107.4h0ZM626.2,192.2l-11.9-30.3-12,30.3h23.9Z"></path><path class="st7" d="M679.6,127.6h29.7v106.7h-29.7s0-106.7,0-106.7Z"></path><path class="st7" d="M717.8,127.6h50.4c16.3,0,27.6,4.3,34.7,11.6,6.2,6.1,9.5,14.3,9.5,24.8v.3c0,16.3-8.7,27.1-21.9,32.8l25.4,37.2h-34.1l-21.5-32.3h-13v32.3h-29.6v-106.7h0ZM766.9,178.8c10,0,15.8-4.9,15.8-12.6v-.3c0-8.4-6.1-12.6-16-12.6h-19.3v25.6h19.5Z"></path><circle class="st3" cx="872.9" cy="143.1" r="40.4"></circle><path class="st5" d="M846.4,145.7v-14.7h7.3v14.5c0,3.8,1.9,5.6,4.8,5.6s4.8-1.7,4.8-5.4v-14.7h7.3v14.5c0,8.4-4.8,12.1-12.2,12.1s-12.1-3.8-12.1-11.9h.1Z"></path><path class="st5" d="M875.1,131h7.2v10.6l9-10.6h8.6l-9.9,11.2,10.2,14.9h-8.7l-6.6-9.7-2.7,2.9v6.8h-7.2v-26.1h.1Z"></path><path class="st3" d="M377.4,128.2v106.5h86.4v-25.1h-57.2v-16.9h51.1v-23.3h-51.1v-16.1h56.4v-25.1h-85.6,0ZM377.4,128.2h0Z"></path><polygon class="st3" points="471.4 128.2 471.4 154 503.4 154 503.4 234.7 532.9 234.7 532.9 154 564.8 154 564.8 128.2 471.4 128.2"></polygon><path class="st7" d="M614.6,162.4l11.9,30.3h-23.9l12-30.3ZM600.6,127.4h0l-45.3,107.2h31l7.6-19h41.1l7.8,19h31.6l-45.3-107.2h-28.5,0Z"></path><rect class="st7" x="679.8" y="128.2" width="29.7" height="106.5"></rect><g class="st9"><g><path class="st7" d="M766.9,179.3c10,0,15.8-4.9,15.8-12.6v-.3c0-8.4-6.1-12.6-16-12.6h-19.3v25.6h19.5ZM717.9,128.2h50.3c16.3,0,27.5,4.3,34.7,11.6,6.2,6.1,9.4,14.3,9.4,24.8v.3c0,16.3-8.7,27.1-21.9,32.7l25.4,37.1h-34.1l-21.4-32.2h-12.9v32.2h-29.5v-106.5h0Z"></path><path class="st3" d="M872.7,103.3c22.3,0,40.3,18.1,40.3,40.3s-18.1,40.3-40.3,40.3-40.3-18.1-40.3-40.3,18.1-40.3,40.3-40.3"></path><path class="st5" d="M846.3,146.2v-14.6h7.3v14.5c0,3.8,1.9,5.6,4.8,5.6s4.8-1.7,4.8-5.4v-14.7h7.3v14.4c0,8.4-4.8,12.1-12.2,12.1s-12.1-3.8-12.1-11.9h.1Z"></path></g></g><polygon class="st5" points="874.9 131.6 882.1 131.6 882.1 142.2 891.1 131.6 899.6 131.6 889.8 142.8 900 157.7 891.3 157.7 884.7 148 882.1 150.9 882.1 157.7 874.9 157.7 874.9 131.6"></polygon></g><g><g><path class="st1" d="M93.8,457.8c1.6-.9,2.5-2.8,2.5-4.6v-41.6c0-1.9-.7-3.7-2.5-4.6h19.7c8.9,0,17.6,3.7,17.6,13.5s-4.6,9.5-9.5,10.5c7.1,0,14.2,4.3,14.2,12.3,0,11.4-12,14.2-20.4,14.2h-21.6v.3h0ZM109.9,411.6h-3.4v17.9h2.1c6.2,0,12-1.9,12-8.9s-4.6-8.9-10.8-8.9ZM111.2,434.1h-4.6v18.8c2.1.3,4.6.7,6.8.7,4.9,0,10.2-2.1,10.2-10.2s-6.2-9.3-12.6-9.3h.3,0ZM155.2,411.6h-2.5v17.6h2.5c5.8,0,9.8-3.1,9.8-9.3s-4-8.6-9.8-8.6v.3ZM180.7,458.1c-1.9,0-4,0-5.8-.7-3.4-.9-8.3-8.9-10.2-11.7-3.1-4.9-5.6-11.7-12-11.7v19.5c0,1.6.7,3.7,2.5,4.6h-15.1c1.6-.9,2.5-2.8,2.5-4.6v-41.6c0-1.9-.7-3.7-2.5-4.6h18.2c8,0,17.9,3.1,17.9,12.6s-6.8,12-14.2,12c10.5,0,16.7,24.6,28.3,24.9-3.1.9-6.5,1.2-9.5,1.2h0ZM191.3,457.8c1.2-.7,2.5-2.1,2.5-4.6v-41.6c0-2.1-1.2-4-2.5-4.6h15.8c-1.2.7-2.5,2.1-2.5,4.6v41.6c0,2.1,1.2,4,2.5,4.6h-15.8ZM225.1,457.8c1.6-.7,2.5-2.8,2.5-4.6v-40.4h-11.1c-2.5,0-5.6.3-8,1.6l3.4-7.4h37c3.1,0,6.2,0,8.9-.7-1.6,3.7-5.6,6.8-8,6.8h-12v40.4c0,1.9.9,3.7,2.5,4.6h-15.4l.3-.3h0ZM259.9,457.8c1.2-.7,2.5-2.1,2.5-4.6v-41.6c0-2.1-1.2-4-2.5-4.6h15.8c-1.2.7-2.5,2.1-2.5,4.6v41.6c0,2.1,1.2,4,2.5,4.6h-15.8ZM305.9,446.5c0-9.5-22.8-11.7-22.8-27.1s8.9-12.6,17-12.6,8.6.7,12,1.9l.7,9.5c-1.9-4.3-7.1-7.1-11.7-7.1s-7.4,1.9-7.4,6.2c0,9.8,23.1,12.3,23.1,27.1s-9.3,15.1-18.5,15.1-11.4-.9-15.8-3.7c0-1.6-.3-3.4-.3-5.3s0-4,.7-6.2c2.5,5.8,8,10.5,14.5,10.5s8.9-2.1,8.9-7.7l-.3-.7h0ZM354.6,457.8c1.2-.7,2.1-2.1,2.1-4.6v-18.8c-2.8,0-6.5-.3-10.8-.3s-8,0-10.8.3v18.8c0,2.1,1.2,4,2.1,4.6h-15.1c1.2-.7,2.1-2.1,2.1-4.6v-41.6c0-2.1-1.2-4-2.1-4.6h15.1c-1.2.7-2.1,2.1-2.1,4.6v17c2.8,0,6.5.3,10.8.3s8,0,10.8-.3v-17c0-2.1-1.2-4-2.1-4.6h15.1c-1.2.7-2.1,2.1-2.1,4.6v41.6c0,2.1,1.2,4,2.1,4.6h-15.1Z"></path><path class="st1" d="M425.2,457.8c.7-.7.9-.9.9-1.9s0-.9-.7-1.9c0,0-4-11.4-4.6-12.6-3.1-.3-6.5-.3-9.5-.3s-6.2,0-9.3.3c-.3,1.2-4.9,12.3-4.9,12.3-.7,1.6-.9,2.1-.9,2.5,0,.7.7,1.2,1.2,1.2h-10.2c1.6-.7,2.8-2.5,3.4-4l16.7-43.2v-.7c0-1.2-.9-2.5-1.9-2.8h13.2l17,46.9c.7,1.9,2.1,3.4,3.4,4h-14.5.7v.2ZM411.9,416.9l-7.7,19.7c2.1,0,4.6.3,7.1.3s5.3,0,8-.3l-7.1-19.7h-.3ZM442.5,457.8c1.2-.7,2.5-2.1,2.5-4.6v-41.6c0-2.1-1.2-4-2.5-4.6h15.8c-1.2.7-2.5,2.1-2.5,4.6v41.6c0,2.1,1.2,4,2.5,4.6h-15.8ZM481.6,411.6h-2.5v17.6h2.5c5.8,0,9.8-3.1,9.8-9.3s-4.3-8.6-9.8-8.6v.3ZM508.4,458.1c-1.9,0-4,0-5.8-.7-3.4-.9-8.3-8.9-10.2-11.7-3.1-4.9-6.8-11.7-13.2-11.7v19.5c0,1.6.7,3.7,2.5,4.6h-15.1c1.6-.9,2.5-2.8,2.5-4.6v-41.6c0-1.9-.7-3.7-2.5-4.6h18.5c8,0,17.9,3.1,17.9,12.6s-7.4,12-12.6,12c10.8.7,17.6,24.9,28.3,24.9-3.1.9-6.5,1.2-9.5,1.2h-.7ZM571.6,412.3l-15.4,45.6c-1.2,0-2.5-.3-3.1-.9-1.6-1.6-4-7.7-4.9-9.8l-7.1-17.6-10.2,28.3h-4.6l-17.2-46c-.7-1.9-1.9-3.7-4-4.9h15.1c-.7.7-.9.9-.9,2.1s0,1.2.3,1.9l11.1,30.2,12-34.2,13.2,33,9.8-29.9c0-.9.3-1.2.3-1.6s0-.9-.9-1.6h9.8c-1.9.9-3.1,3.1-3.7,4.9l.3.3h0ZM590,416.9l-7.7,19.7c2.5,0,4.6.3,7.1.3s5.3,0,7.7-.3l-7.1-19.7ZM603.3,457.8c.7-.7.9-.9.9-1.9s0-.9-.3-1.9c0,0-4-11.4-4.6-12.6-3.1-.3-6.5-.3-9.5-.3s-6.2,0-8.9.3c-.3,1.2-4.9,12.3-4.9,12.3-.7,1.6-.9,2.1-.9,2.5,0,.7.7,1.2,1.2,1.2h-10.2c1.6-.7,2.8-2.5,3.4-4l17-43.2v-.7c0-1.2-.9-2.5-1.9-2.8h13.2l17,46.9c.7,1.9,2.1,3.4,3.4,4h-14.8v.2ZM649,412.5l-12,20.9v19.7c0,1.6.7,3.7,2.1,4.6h-14.8c1.6-.9,2.1-3.1,2.1-4.6v-19.7l-10.5-16.7c-.9-1.6-5.3-8.9-10.5-8.9,1.6-.7,5.8-1.2,8.6-1.2,4.9,0,7.4.3,10.5,5.3l9.5,15.4c.9-1.6,8.3-14.8,8.3-14.8.9-1.6,1.6-2.8,1.6-3.4s-.3-1.2-.9-1.6h10.8c-2.1.9-4,3.4-4.9,5.3v-.3h0ZM676.9,446.5c0-9.5-22.8-11.7-22.8-27.1s8.9-12.6,17-12.6,8.6.7,12,1.9l.7,9.5c-2.1-4.3-7.1-7.1-11.7-7.1s-7.4,1.9-7.4,6.2c0,9.8,23.1,12.3,23.1,27.1s-9.3,15.1-18.5,15.1-11.4-.9-15.8-3.7c0-1.6-.3-3.4-.3-5.3s0-4,.7-6.2c2.5,5.8,8,10.5,14.5,10.5s8.9-2.1,8.9-7.7l-.3-.7h0Z"></path></g><path class="st4" d="M816.9,371.9c-8.6,8.3-27.1,15.8-36,19.1-12.3,4.6-17.9,6.2-24.9,8.6-7.7,2.5-23.4,7.4-23.4,7.4,32.7,9.8,55.5,12.6,55.5,12.6,0,0,10.8-3.4,27.7-12.3,9.3-4.6,13.5-7.7,17-10.8,1.2-.9,4.3-4.3,4.9-8.3v-3.7s0-.9-.3-1.6c0-.7-1.2-2.8-3.1-4-1.2-.9-3.1-3.1-10.2-5.8-2.5-.9-6.5-1.6-6.5-1.6l-.7.7v-.3h0Z"></path><path class="st2" d="M837.9,386v-1.6c0-.7-.7-1.2-.9-2.1-.7-.9-1.2-1.9-2.5-2.8-.9-.9-1.9-1.6-2.8-2.1-4.3-2.8-10.2-4.6-15.1-5.3-8-.9-17-.9-17.9-.9h-26.5c-21.3.3-47.4.7-54.6.7-70.9.3-101.7-1.2-135.9-8-29.3-5.8-45.3-11.4-45.3-11.4,25.9-.9,176-7.1,203.5-7.7,17.9-.7,30.9-.7,41,0,5.3,0,10.2.7,16.3,1.9,5.6.9,10.5,2.5,13.2,3.7,6.2,2.1,11.1,5.6,13.9,8.9,0,0,.7.7,1.9,2.1,1.2,1.6,2.5,3.7,2.8,4.3,3.7,5.6,5.6,9.3,6.2,10.5.7,1.2,1.2,2.8,1.9,4s.9,2.1.9,2.8c.3,1.2.7,2.8.7,2.8v.9l-.7-.7h0Z"></path></g></g><g id="preferred_PArtner" class="st8"><g><path class="st3" d="M279,290.2h7.7c4.6,0,7.4,2.6,7.4,6.6h0c0,4.5-3.5,6.7-7.8,6.7h-3.9v6.3h-3.4v-19.6ZM286.4,300.4c2.6,0,4.2-1.5,4.2-3.5h0c0-2.4-1.7-3.6-4.2-3.6h-4v7.1h4Z"></path><path class="st3" d="M300.5,290.2h8.7c2.5,0,4.4.7,5.7,2,1,1.1,1.6,2.5,1.6,4.2h0c0,3.3-1.9,5.2-4.6,6l5.3,7.4h-4.1l-4.8-6.8h-4.3v6.8h-3.4v-19.6ZM309,299.9c2.5,0,4-1.3,4-3.3h0c0-2.2-1.5-3.3-4.1-3.3h-5v6.6h5Z"></path><path class="st3" d="M323.5,290.2h14.5v3.1h-11.1v5.1h9.8v3.1h-9.8v5.3h11.2v3.1h-14.7v-19.6Z"></path><path class="st3" d="M345.1,290.2h14.6v3.1h-11.1v5.3h9.9v3.1h-9.9v8h-3.4v-19.6Z"></path><path class="st3" d="M366.2,290.2h14.5v3.1h-11.1v5.1h9.8v3.1h-9.8v5.3h11.2v3.1h-14.7v-19.6Z"></path><path class="st3" d="M387.8,290.2h8.7c2.5,0,4.4.7,5.7,2,1,1.1,1.6,2.5,1.6,4.2h0c0,3.3-1.9,5.2-4.6,6l5.3,7.4h-4.1l-4.8-6.8h-4.3v6.8h-3.4v-19.6ZM396.3,299.9c2.5,0,4-1.3,4-3.3h0c0-2.2-1.5-3.3-4.1-3.3h-5v6.6h5Z"></path><path class="st3" d="M410.9,290.2h8.7c2.5,0,4.4.7,5.7,2,1,1.1,1.6,2.5,1.6,4.2h0c0,3.3-1.9,5.2-4.6,6l5.3,7.4h-4.1l-4.8-6.8h-4.3v6.8h-3.4v-19.6ZM419.3,299.9c2.5,0,4-1.3,4-3.3h0c0-2.2-1.5-3.3-4.1-3.3h-5v6.6h5Z"></path><path class="st3" d="M433.9,290.2h14.5v3.1h-11.1v5.1h9.8v3.1h-9.8v5.3h11.2v3.1h-14.7v-19.6Z"></path><path class="st3" d="M455.5,290.2h7.3c6.2,0,10.4,4.2,10.4,9.7h0c0,5.6-4.3,9.9-10.4,9.9h-7.3v-19.6ZM458.9,293.4v13.3h3.9c4.1,0,6.8-2.8,6.8-6.6h0c0-3.9-2.7-6.7-6.8-6.7h-3.9Z"></path><path class="st3" d="M491.4,290.2h7.7c4.6,0,7.4,2.6,7.4,6.6h0c0,4.5-3.5,6.7-7.8,6.7h-3.9v6.3h-3.4v-19.6ZM498.8,300.4c2.6,0,4.2-1.5,4.2-3.5h0c0-2.4-1.7-3.6-4.2-3.6h-4v7.1h4Z"></path><path class="st3" d="M517.8,290.1h3.2l8.6,19.7h-3.6l-2-4.7h-9.3l-2,4.7h-3.5l8.6-19.7ZM522.8,302l-3.4-7.8-3.4,7.8h6.7Z"></path><path class="st3" d="M535.8,290.2h8.7c2.5,0,4.4.7,5.7,2,1,1.1,1.6,2.5,1.6,4.2h0c0,3.3-1.9,5.2-4.6,6l5.3,7.4h-4.1l-4.8-6.8h-4.3v6.8h-3.4v-19.6ZM544.3,299.9c2.5,0,4-1.3,4-3.3h0c0-2.2-1.5-3.3-4.1-3.3h-5v6.6h5Z"></path><path class="st3" d="M563.6,293.4h-6.2v-3.2h15.9v3.2h-6.2v16.4h-3.5v-16.4Z"></path><path class="st3" d="M579.7,290.2h3.2l10.5,13.6v-13.6h3.4v19.6h-2.9l-10.8-13.9v13.9h-3.4v-19.6Z"></path><path class="st3" d="M604.6,290.2h14.5v3.1h-11.1v5.1h9.8v3.1h-9.8v5.3h11.2v3.1h-14.7v-19.6Z"></path><path class="st3" d="M626.2,290.2h8.7c2.5,0,4.4.7,5.7,2,1,1.1,1.6,2.5,1.6,4.2h0c0,3.3-1.9,5.2-4.6,6l5.3,7.4h-4.1l-4.8-6.8h-4.3v6.8h-3.4v-19.6ZM634.7,299.9c2.5,0,4-1.3,4-3.3h0c0-2.2-1.5-3.3-4.1-3.3h-5v6.6h5Z"></path></g></g><g id="in_partnership"><g><path class="st3" d="M284.1,290.2h3.4v19.6h-3.4v-19.6Z"></path><path class="st3" d="M294.2,290.2h3.2l10.5,13.6v-13.6h3.4v19.6h-2.9l-10.8-13.9v13.9h-3.4v-19.6Z"></path><path class="st3" d="M327.5,290.2h7.7c4.6,0,7.4,2.6,7.4,6.6h0c0,4.5-3.5,6.7-7.8,6.7h-3.9v6.3h-3.4v-19.6ZM334.9,300.4c2.6,0,4.2-1.5,4.2-3.5h0c0-2.4-1.7-3.6-4.2-3.6h-4v7.1h4Z"></path><path class="st3" d="M352.6,290.1h3.2l8.6,19.7h-3.6l-2-4.7h-9.3l-2,4.7h-3.5l8.6-19.7ZM357.5,302l-3.4-7.8-3.4,7.8h6.7Z"></path><path class="st3" d="M369.2,290.2h8.7c2.5,0,4.4.7,5.7,2,1,1.1,1.6,2.5,1.6,4.2h0c0,3.3-1.9,5.2-4.6,6l5.3,7.4h-4.1l-4.8-6.8h-4.3v6.8h-3.4v-19.6ZM377.6,299.9c2.5,0,4-1.3,4-3.3h0c0-2.2-1.5-3.3-4.1-3.3h-5v6.6h5Z"></path><path class="st3" d="M395.5,293.4h-6.2v-3.2h15.9v3.2h-6.2v16.4h-3.5v-16.4Z"></path><path class="st3" d="M410.3,290.2h3.2l10.5,13.6v-13.6h3.4v19.6h-2.9l-10.8-13.9v13.9h-3.4v-19.6Z"></path><path class="st3" d="M433.8,290.2h14.5v3.1h-11.1v5.1h9.8v3.1h-9.8v5.3h11.2v3.1h-14.7v-19.6Z"></path><path class="st3" d="M453.9,290.2h8.7c2.5,0,4.4.7,5.7,2,1,1.1,1.6,2.5,1.6,4.2h0c0,3.3-1.9,5.2-4.6,6l5.3,7.4h-4.1l-4.8-6.8h-4.3v6.8h-3.4v-19.6ZM462.4,299.9c2.5,0,4-1.3,4-3.3h0c0-2.2-1.5-3.3-4.1-3.3h-5v6.6h5Z"></path><path class="st3" d="M474.3,307l2.1-2.5c1.9,1.6,3.8,2.5,6.2,2.5s3.5-1,3.5-2.5h0c0-1.5-.8-2.2-4.4-3.1-4.2-1-6.5-2.2-6.5-5.9h0c0-3.4,2.8-5.7,6.7-5.7s5.1.9,7.1,2.5l-1.8,2.6c-1.8-1.3-3.5-2-5.3-2s-3.2,1-3.2,2.3h0c0,1.6.9,2.2,4.7,3.1,4.1,1,6.3,2.5,6.3,5.7h0c0,3.7-2.9,5.9-7,5.9s-5.8-1-8.2-3.1Z"></path><path class="st3" d="M494.9,290.2h3.4v8.1h9.4v-8.1h3.4v19.6h-3.4v-8.3h-9.4v8.3h-3.4v-19.6Z"></path><path class="st3" d="M517.8,290.2h3.4v19.6h-3.4v-19.6Z"></path><path class="st3" d="M527.9,290.2h7.7c4.6,0,7.4,2.6,7.4,6.6h0c0,4.5-3.5,6.7-7.8,6.7h-3.9v6.3h-3.4v-19.6ZM535.3,300.4c2.6,0,4.2-1.5,4.2-3.5h0c0-2.4-1.7-3.6-4.2-3.6h-4v7.1h4Z"></path><path class="st3" d="M556.3,290.2h3.7l4.7,14.5,4.8-14.6h2.9l4.8,14.6,4.7-14.5h3.6l-6.8,19.7h-3l-4.8-14.1-4.8,14.1h-3l-6.8-19.7Z"></path><path class="st3" d="M590.6,290.2h3.4v19.6h-3.4v-19.6Z"></path><path class="st3" d="M605.5,293.4h-6.2v-3.2h15.9v3.2h-6.2v16.4h-3.5v-16.4Z"></path><path class="st3" d="M620.2,290.2h3.4v8.1h9.4v-8.1h3.4v19.6h-3.4v-8.3h-9.4v8.3h-3.4v-19.6Z"></path></g></g></svg>