<svg xmlns="http://www.w3.org/2000/svg" xmlns:xlink="http://www.w3.org/1999/xlink" id="Layer_1" data-name="Layer 1" viewBox="0 0 215 76.86"><defs><style>      .cls-1 {        fill: #112369;      }      .cls-2 {        fill: url(#linear-gradient-8);      }      .cls-3 {        fill: url(#linear-gradient-7);      }      .cls-4 {        fill: url(#linear-gradient-5);      }      .cls-5 {        fill: url(#linear-gradient-6);      }      .cls-6 {        fill: url(#linear-gradient-4);      }      .cls-7 {        fill: url(#linear-gradient-3);      }      .cls-8 {        fill: url(#linear-gradient-2);      }      .cls-9 {        fill: #231f20;      }      .cls-10 {        fill: url(#linear-gradient);      }      .cls-11 {        fill: #fff;      }      .cls-12 {        fill: none;        stroke: #112369;        stroke-linecap: round;        stroke-linejoin: round;      }    </style><linearGradient id="linear-gradient" x1="43.68" y1="-8.59" x2="31.94" y2="38.48" gradientUnits="userSpaceOnUse"><stop offset=".24" stop-color="#020f50"></stop><stop offset=".28" stop-color="#072664"></stop><stop offset=".36" stop-color="#145790"></stop><stop offset=".42" stop-color="#1d7bb0"></stop><stop offset=".48" stop-color="#2291c3"></stop><stop offset=".52" stop-color="#2599cb"></stop><stop offset=".53" stop-color="#2290c3"></stop><stop offset=".63" stop-color="#145891"></stop><stop offset=".71" stop-color="#0a306e"></stop><stop offset=".78" stop-color="#041858"></stop><stop offset=".82" stop-color="#020f50"></stop></linearGradient><linearGradient id="linear-gradient-2" x1="67.86" y1="-1.75" x2="56.14" y2="45.25" xlink:href="#linear-gradient"></linearGradient><linearGradient id="linear-gradient-3" x1="89.67" y1="4.63" x2="78" y2="51.44" xlink:href="#linear-gradient"></linearGradient><linearGradient id="linear-gradient-4" x1="113.98" y1="11.59" x2="102.38" y2="58.12" xlink:href="#linear-gradient"></linearGradient><linearGradient id="linear-gradient-5" x1="133.2" y1="16.68" x2="121.36" y2="64.2" xlink:href="#linear-gradient"></linearGradient><linearGradient id="linear-gradient-6" x1="149.42" y1="21.57" x2="137.7" y2="68.59" xlink:href="#linear-gradient"></linearGradient><linearGradient id="linear-gradient-7" x1="176.67" y1="29.13" x2="165.07" y2="75.66" xlink:href="#linear-gradient"></linearGradient><linearGradient id="linear-gradient-8" x1="67.86" y1="-1.75" x2="56.14" y2="45.25" xlink:href="#linear-gradient"></linearGradient></defs><g><path class="cls-10" d="M25.63,17.18h10.58c6.18,0,10.19,3.2,10.19,8.61v.07c0,5.83-4.46,8.89-10.54,8.89h-3.41v7.03h-6.82v-24.6ZM35.71,29.41c2.39,0,3.9-1.3,3.9-3.23v-.07c0-2.11-1.51-3.2-3.94-3.2h-3.23v6.5h3.27Z"></path><path class="cls-8" d="M48.75,17.18h11.63c3.76,0,6.36.98,8.01,2.64,1.44,1.44,2.18,3.3,2.18,5.73v.07c0,3.8-2,6.29-5.06,7.59l5.87,8.57h-7.84l-4.96-7.45h-3.02v7.45h-6.82v-24.6ZM60.1,28.99c2.28,0,3.65-1.12,3.65-2.92v-.07c0-1.97-1.44-2.95-3.69-2.95h-4.5v5.94h4.53Z"></path><path class="cls-7" d="M73.5,17.18h19.78v5.76h-13.04v3.76h11.81v5.38h-11.81v3.9h13.21v5.8h-19.96v-24.6Z"></path><path class="cls-6" d="M96.45,17.18h7.2l5.87,9.52,5.87-9.52h7.2v24.6h-6.78v-14.13l-6.29,9.63h-.14l-6.26-9.59v14.09h-6.68v-24.6Z"></path><path class="cls-4" d="M126.6,17.18h6.82v24.6h-6.82v-24.6Z"></path><path class="cls-5" d="M137.11,30.99v-13.81h6.89v13.67c0,3.55,1.79,5.24,4.53,5.24s4.57-1.62,4.57-5.06v-13.85h6.89v13.63c0,7.91-4.53,11.42-11.53,11.42s-11.35-3.55-11.35-11.25Z"></path><path class="cls-3" d="M163.51,17.18h7.2l5.87,9.52,5.87-9.52h7.2v24.6h-6.78v-14.13l-6.29,9.63h-.14l-6.25-9.59v14.09h-6.68v-24.6Z"></path><path class="cls-2" d="M48.75,17.18h11.63c3.76,0,6.36.98,8.01,2.64,1.44,1.44,2.18,3.3,2.18,5.73v.07c0,3.8-2,6.29-5.06,7.59l5.87,8.57h-7.84l-4.96-7.45h-3.02v7.45h-6.82v-24.6Z"></path><g><ellipse class="cls-11" cx="55.48" cy="24.15" rx="1.48" ry="2.09" transform="translate(-.65 46.75) rotate(-45.45)"></ellipse><ellipse class="cls-11" cx="54.05" cy="27.16" rx="1.17" ry="1.59" transform="translate(8.37 66.82) rotate(-67.64)"></ellipse><ellipse class="cls-11" cx="58.64" cy="22.18" rx="1.48" ry="2.09" transform="translate(-4 19.55) rotate(-18.31)"></ellipse><ellipse class="cls-11" cx="61.98" cy="22.23" rx="1.59" ry="1.17" transform="translate(35.59 82.56) rotate(-86.11)"></ellipse><path class="cls-11" d="M64.34,25.96c.11.17.2.36.26.55.24.82-.09,1.73-.85,2.21-.43.27-.93.35-1.39.26-.04-.01-.09-.02-.13-.03-.46-.09-.96,0-1.39.26-.4.25-.68.62-.82,1.04,0,0,0,0,0,0-.03.1-.06.2-.07.3h0c-.14.42-.42.8-.83,1.05-.85.53-1.94.33-2.55-.42-.03-.04-.06-.07-.09-.11-.02-.03-.05-.07-.07-.1-.01-.02-.02-.04-.04-.05-1.06-1.7-.18-4.16,1.95-5.54.03-.02.06-.04.09-.06s.06-.04.09-.06c2.1-1.25,4.57-1.02,5.7.5.01.01.02.02.03.04.04.05.07.11.11.16h0Z"></path></g></g><g><path class="cls-1" d="M43.41,54.07h.98l2.07,4.87h-1.11l-.44-1.08h-2.05l-.44,1.08h-1.08l2.07-4.87ZM44.53,56.91l-.64-1.57-.64,1.57h1.29Z"></path><path class="cls-1" d="M48.6,54.1h1.06v3.87h2.41v.97h-3.48v-4.84Z"></path><path class="cls-1" d="M54.26,54.1h1.06v3.87h2.41v.97h-3.48v-4.84Z"></path><path class="cls-1" d="M63.42,54.1h1.06v4.84h-1.06v-4.84Z"></path><path class="cls-1" d="M67.08,54.1h.98l2.27,2.98v-2.98h1.05v4.84h-.91l-2.34-3.08v3.08h-1.05v-4.84Z"></path><path class="cls-1" d="M73.71,56.53h0c0-1.39,1.04-2.52,2.52-2.52.91,0,1.46.3,1.91.75l-.68.78c-.37-.34-.75-.55-1.24-.55-.82,0-1.4.68-1.4,1.51h0c0,.84.57,1.53,1.4,1.53.55,0,.89-.22,1.27-.57l.68.68c-.5.53-1.05.86-1.98.86-1.42,0-2.48-1.1-2.48-2.49Z"></path><path class="cls-1" d="M80.41,54.1h1.06v3.87h2.41v.97h-3.48v-4.84Z"></path><path class="cls-1" d="M85.86,56.87v-2.77h1.06v2.74c0,.79.39,1.2,1.04,1.2s1.04-.39,1.04-1.16v-2.77h1.06v2.73c0,1.47-.82,2.18-2.12,2.18s-2.09-.73-2.09-2.15Z"></path><path class="cls-1" d="M92.21,58.24l.63-.75c.44.36.89.59,1.44.59.44,0,.7-.17.7-.46h0c0-.28-.17-.42-.97-.63-.97-.25-1.6-.52-1.6-1.48h0c0-.89.71-1.47,1.69-1.47.71,0,1.31.22,1.8.61l-.55.8c-.43-.3-.85-.48-1.26-.48s-.62.19-.62.42h0c0,.33.21.44,1.04.65.98.26,1.53.61,1.53,1.45h0c0,.97-.73,1.51-1.78,1.51-.73,0-1.47-.26-2.05-.77Z"></path><path class="cls-1" d="M98.4,54.1h1.06v4.84h-1.06v-4.84Z"></path><path class="cls-1" d="M101.64,54.1h1.17l1.26,3.41,1.27-3.41h1.15l-1.96,4.87h-.94l-1.96-4.87Z"></path><path class="cls-1" d="M108.62,54.1h3.65v.95h-2.59v.98h2.28v.95h-2.28v1.02h2.63v.95h-3.68v-4.84Z"></path><path class="cls-9" d="M118.2,54.1h1.81c1.09,0,1.81.58,1.81,1.54h0c0,1.06-.87,1.6-1.9,1.6h-1.17v1.71h-.55v-4.84ZM119.94,56.74c.8,0,1.33-.43,1.33-1.06h0c0-.71-.52-1.06-1.3-1.06h-1.22v2.13h1.2Z"></path><path class="cls-9" d="M124.2,54.1h3.5v.5h-2.95v1.65h2.64v.5h-2.64v1.69h2.99v.5h-3.53v-4.84Z"></path><path class="cls-9" d="M131.49,54.61h-1.62v-.5h3.8v.5h-1.62v4.33h-.55v-4.33Z"></path><path class="cls-9" d="M140.81,54.61h-1.62v-.5h3.8v.5h-1.62v4.33h-.55v-4.33Z"></path><path class="cls-9" d="M145.4,54.1h2.08c.59,0,1.07.18,1.38.48.23.23.37.57.37.95h0c0,.82-.55,1.29-1.31,1.42l1.49,1.98h-.67l-1.4-1.88h-1.38v1.88h-.55v-4.84ZM147.43,56.57c.73,0,1.24-.37,1.24-1h0c0-.61-.46-.97-1.24-.97h-1.49v1.96h1.49Z"></path><path class="cls-9" d="M153.57,54.07h.51l2.21,4.87h-.59l-.57-1.28h-2.63l-.57,1.28h-.56l2.21-4.87ZM154.92,57.16l-1.1-2.46-1.11,2.46h2.21Z"></path><path class="cls-9" d="M157.52,54.1h.61l1.72,4.17,1.73-4.17h.59l-2.08,4.87h-.48l-2.08-4.87Z"></path><path class="cls-9" d="M164.5,54.1h3.5v.5h-2.95v1.65h2.64v.5h-2.64v1.69h2.99v.5h-3.53v-4.84Z"></path><path class="cls-9" d="M170.51,54.1h.55v4.33h2.72v.5h-3.27v-4.84Z"></path></g><line class="cls-12" x1="76.87" y1="48.52" x2="143.08" y2="48.52"></line></svg>