<svg xmlns="http://www.w3.org/2000/svg" xmlns:xlink="http://www.w3.org/1999/xlink" id="Layer_1" data-name="Layer 1" viewBox="0 0 215 76.86"><defs><style>      .cls-1 {        fill: url(#Gold);      }      .cls-2 {        fill: url(#linear-gradient-8);      }      .cls-3 {        fill: url(#linear-gradient-7);      }      .cls-4 {        fill: url(#linear-gradient-5);      }      .cls-5 {        fill: url(#linear-gradient-6);      }      .cls-6 {        fill: url(#linear-gradient-9);      }      .cls-7 {        fill: url(#linear-gradient-4);      }      .cls-8 {        fill: url(#linear-gradient-3);      }      .cls-9 {        fill: url(#linear-gradient-2);      }      .cls-10 {        fill: #231f20;      }      .cls-11 {        fill: url(#linear-gradient);      }      .cls-12 {        fill: url(#Superior_-_Super_Black);      }      .cls-13 {        fill: url(#Gold-2);      }      .cls-14 {        fill: url(#Gold-4);      }      .cls-15 {        fill: url(#Gold-3);      }      .cls-16 {        fill: url(#Gold-5);      }    </style><linearGradient id="Superior_-_Super_Black" data-name="Superior - Super Black" x1="79.93" y1="43.25" x2="189.28" y2="80.65" gradientUnits="userSpaceOnUse"><stop offset=".29" stop-color="#26313d"></stop><stop offset=".36" stop-color="#59636d"></stop><stop offset=".44" stop-color="#899199"></stop><stop offset=".51" stop-color="#a6aeb5"></stop><stop offset=".54" stop-color="#b2b9c0"></stop><stop offset=".75" stop-color="#26313d"></stop></linearGradient><linearGradient id="linear-gradient" x1="36.57" y1="-9.33" x2="27.34" y2="26.88" gradientUnits="userSpaceOnUse"><stop offset=".29" stop-color="#262d33"></stop><stop offset=".36" stop-color="#5a6167"></stop><stop offset=".44" stop-color="#899097"></stop><stop offset=".51" stop-color="#a7aeb4"></stop><stop offset=".54" stop-color="#b2b9c0"></stop><stop offset=".75" stop-color="#171c21"></stop></linearGradient><linearGradient id="linear-gradient-2" x1="58.15" y1="-3.83" x2="48.92" y2="32.38" xlink:href="#linear-gradient"></linearGradient><linearGradient id="linear-gradient-3" x1="81.25" y1="2.06" x2="72.01" y2="38.27" xlink:href="#linear-gradient"></linearGradient><linearGradient id="linear-gradient-4" x1="104.33" y1="7.94" x2="95.1" y2="44.16" xlink:href="#linear-gradient"></linearGradient><linearGradient id="linear-gradient-5" x1="127.14" y1="13.76" x2="117.91" y2="49.97" xlink:href="#linear-gradient"></linearGradient><linearGradient id="linear-gradient-6" x1="143.11" y1="17.83" x2="133.88" y2="54.04" xlink:href="#linear-gradient"></linearGradient><linearGradient id="linear-gradient-7" x1="161.72" y1="22.57" x2="152.49" y2="58.79" xlink:href="#linear-gradient"></linearGradient><linearGradient id="linear-gradient-8" x1="187.6" y1="29.17" x2="178.37" y2="65.38" xlink:href="#linear-gradient"></linearGradient><linearGradient id="linear-gradient-9" x1="187.6" y1="29.17" x2="178.37" y2="65.38" xlink:href="#linear-gradient"></linearGradient><linearGradient id="Gold" x1="185.16" y1="17.16" x2="178.84" y2="32.69" gradientTransform="translate(71.65 -122.69) rotate(45.45)" gradientUnits="userSpaceOnUse"><stop offset="0" stop-color="#fbc926"></stop><stop offset=".25" stop-color="#fffbcc"></stop><stop offset=".3" stop-color="#f8efba"></stop><stop offset=".41" stop-color="#e7d18d"></stop><stop offset=".55" stop-color="#cca246"></stop><stop offset=".6" stop-color="#c3922e"></stop><stop offset=".87" stop-color="#eed688"></stop><stop offset="1" stop-color="#fffbcc"></stop></linearGradient><linearGradient id="Gold-2" data-name="Gold" x1="184.99" y1="17.09" x2="178.67" y2="32.62" gradientTransform="translate(137.23 -150.41) rotate(67.64)" xlink:href="#Gold"></linearGradient><linearGradient id="Gold-3" data-name="Gold" x1="187.19" y1="17.99" x2="180.86" y2="33.51" gradientTransform="translate(16.38 -57.14) rotate(18.31)" xlink:href="#Gold"></linearGradient><linearGradient id="Gold-4" data-name="Gold" x1="190.06" y1="19.16" x2="183.74" y2="34.68" gradientTransform="translate(198.22 -167.58) rotate(86.11)" xlink:href="#Gold"></linearGradient><linearGradient id="Gold-5" data-name="Gold" x1="190.64" y1="19.39" x2="184.32" y2="34.92" gradientTransform="matrix(1,0,0,1,0,0)" xlink:href="#Gold"></linearGradient></defs><path class="cls-12" d="M107,48.83c31.53,0,60.91,1.35,85.63,3.69-10.85-2.71-45.08-5.69-85.63-5.69s-74.78,2.98-85.63,5.69c24.95-2.35,54.07-3.69,85.63-3.69Z"></path><g><g><path class="cls-11" d="M15.27,38.51l3.79-4.53c2.46,1.93,5.13,2.95,7.98,2.95,1.86,0,2.85-.63,2.85-1.69v-.07c0-1.05-.81-1.58-4.18-2.39-5.24-1.19-9.28-2.67-9.28-7.7v-.07c0-4.57,3.62-7.87,9.52-7.87,4.18,0,7.45,1.12,10.12,3.27l-3.41,4.81c-2.25-1.62-4.71-2.42-6.89-2.42-1.65,0-2.46.67-2.46,1.58v.07c0,1.12.84,1.62,4.29,2.39,5.62,1.23,9.14,3.06,9.14,7.66v.07c0,5.03-3.97,8.01-9.95,8.01-4.36,0-8.47-1.37-11.53-4.08Z"></path><path class="cls-9" d="M39.24,31.38v-13.81h6.89v13.67c0,3.55,1.79,5.24,4.53,5.24s4.57-1.62,4.57-5.06v-13.85h6.89v13.63c0,7.91-4.53,11.42-11.53,11.42s-11.35-3.55-11.35-11.25Z"></path><path class="cls-8" d="M65.64,17.56h10.58c6.18,0,10.19,3.2,10.19,8.61v.07c0,5.83-4.46,8.89-10.54,8.89h-3.41v7.03h-6.82v-24.6ZM75.72,29.79c2.39,0,3.9-1.3,3.9-3.23v-.07c0-2.11-1.51-3.2-3.94-3.2h-3.23v6.5h3.27Z"></path><path class="cls-7" d="M88.76,17.56h19.78v5.76h-13.04v3.76h11.81v5.38h-11.81v3.9h13.21v5.8h-19.96v-24.6Z"></path><path class="cls-4" d="M111.72,17.56h11.63c3.76,0,6.36.98,8.01,2.64,1.44,1.44,2.18,3.3,2.18,5.73v.07c0,3.79-2,6.29-5.06,7.59l5.87,8.57h-7.84l-4.96-7.45h-3.02v7.45h-6.82v-24.6ZM123.07,29.37c2.28,0,3.65-1.12,3.65-2.92v-.07c0-1.97-1.44-2.95-3.69-2.95h-4.5v5.94h4.53Z"></path><path class="cls-5" d="M136.63,17.56h6.82v24.6h-6.82v-24.6Z"></path><path class="cls-3" d="M146.62,29.93v-.07c0-7.06,5.69-12.79,13.28-12.79s13.21,5.66,13.21,12.72v.07c0,7.06-5.69,12.79-13.28,12.79s-13.21-5.66-13.21-12.72ZM166.12,29.93v-.07c0-3.58-2.53-6.64-6.29-6.64s-6.25,3.02-6.25,6.57v.07c0,3.55,2.57,6.64,6.33,6.64s6.22-3.02,6.22-6.57Z"></path><path class="cls-2" d="M176.1,17.56h11.63c3.76,0,6.36.98,8.01,2.64,1.44,1.44,2.18,3.3,2.18,5.73v.07c0,3.79-2,6.29-5.06,7.59l5.87,8.57h-7.84l-4.95-7.45h-3.02v7.45h-6.82v-24.6ZM187.45,29.37c2.28,0,3.65-1.12,3.65-2.92v-.07c0-1.97-1.44-2.95-3.69-2.95h-4.5v5.94h4.53Z"></path><path class="cls-6" d="M176.1,17.56h11.63c3.76,0,6.36.98,8.01,2.64,1.44,1.44,2.18,3.3,2.18,5.73v.07c0,3.79-2,6.29-5.06,7.59l5.87,8.57h-7.84l-4.95-7.45h-3.02v7.45h-6.82v-24.6Z"></path></g><g><ellipse class="cls-1" cx="182.3" cy="24.2" rx="1.48" ry="2.09" transform="translate(37.17 137.13) rotate(-45.45)"></ellipse><ellipse class="cls-13" cx="180.87" cy="27.21" rx="1.17" ry="1.59" transform="translate(86.89 184.13) rotate(-67.64)"></ellipse><ellipse class="cls-15" cx="185.46" cy="22.24" rx="1.48" ry="2.09" transform="translate(2.4 59.39) rotate(-18.31)"></ellipse><ellipse class="cls-14" cx="188.79" cy="22.29" rx="1.59" ry="1.17" transform="translate(153.75 209.13) rotate(-86.11)"></ellipse><path class="cls-16" d="M191.16,26.01c.11.17.2.36.26.55.24.82-.09,1.73-.85,2.21-.43.27-.93.35-1.39.26-.04-.01-.09-.02-.13-.03-.46-.09-.96,0-1.39.26-.4.25-.68.62-.82,1.04,0,0,0,0,0,0-.03.1-.06.2-.07.3h0c-.14.42-.42.8-.83,1.05-.85.53-1.94.33-2.55-.42-.03-.04-.06-.07-.09-.11-.02-.03-.05-.07-.07-.1-.01-.02-.02-.04-.04-.05-1.06-1.7-.18-4.16,1.95-5.54.03-.02.06-.04.09-.06s.06-.04.09-.06c2.1-1.25,4.57-1.02,5.7.5.01.01.02.02.03.04.04.05.07.11.11.16h0Z"></path></g></g><g><path d="M45.57,54.64h1.98c1.15,0,1.85.68,1.85,1.67h0c0,1.13-.87,1.71-1.96,1.71h-.81v1.45h-1.06v-4.84ZM47.48,57.08c.53,0,.84-.32.84-.73h0c0-.49-.33-.75-.86-.75h-.82v1.48h.84Z"></path><path d="M51.57,54.64h2.21c.62,0,1.09.17,1.41.49.27.27.42.65.42,1.11h0c0,.79-.42,1.29-1.04,1.51l1.18,1.73h-1.24l-1.04-1.55h-.84v1.55h-1.06v-4.84ZM53.71,56.99c.52,0,.82-.28.82-.68h0c0-.47-.32-.71-.84-.71h-1.06v1.39h1.08Z"></path><path d="M58,54.64h1.06v4.84h-1.06v-4.84Z"></path><path d="M61.24,54.64h1.17l1.26,3.41,1.27-3.41h1.15l-1.96,4.87h-.94l-1.96-4.87Z"></path><path d="M69.19,54.61h.98l2.07,4.87h-1.11l-.44-1.08h-2.05l-.44,1.08h-1.08l2.07-4.87ZM70.31,57.45l-.64-1.57-.64,1.57h1.29Z"></path><path d="M74.88,55.62h-1.47v-.98h4.01v.98h-1.47v3.86h-1.06v-3.86Z"></path><path d="M79.62,54.64h3.65v.95h-2.59v.98h2.28v.95h-2.28v1.02h2.63v.95h-3.68v-4.84Z"></path><path d="M88.61,58.82l.67-.75c.28.3.55.48.88.48.4,0,.65-.24.65-.8v-3.12h1.09v3.17c0,.57-.17,1-.46,1.29-.3.3-.73.45-1.26.45-.75,0-1.25-.33-1.58-.73Z"></path><path d="M94.37,54.64h3.65v.95h-2.59v.98h2.28v.95h-2.28v1.02h2.63v.95h-3.68v-4.84Z"></path><path d="M101.51,55.62h-1.47v-.98h4.01v.98h-1.47v3.86h-1.06v-3.86Z"></path><path class="cls-10" d="M109.81,54.64h1.81c1.09,0,1.81.58,1.81,1.54h0c0,1.06-.87,1.6-1.9,1.6h-1.17v1.71h-.55v-4.84ZM111.55,57.27c.8,0,1.33-.43,1.33-1.06h0c0-.71-.52-1.06-1.3-1.06h-1.22v2.13h1.2Z"></path><path class="cls-10" d="M115.81,54.64h3.5v.5h-2.95v1.65h2.64v.5h-2.64v1.69h2.99v.5h-3.53v-4.84Z"></path><path class="cls-10" d="M123.11,55.14h-1.62v-.5h3.8v.5h-1.62v4.33h-.55v-4.33Z"></path><path class="cls-10" d="M132.42,55.14h-1.62v-.5h3.8v.5h-1.62v4.33h-.55v-4.33Z"></path><path class="cls-10" d="M137.01,54.64h2.08c.59,0,1.07.18,1.38.48.23.23.37.57.37.95h0c0,.82-.55,1.29-1.31,1.42l1.49,1.98h-.67l-1.4-1.88h-1.38v1.88h-.55v-4.84ZM139.04,57.11c.73,0,1.24-.37,1.24-1h0c0-.61-.46-.97-1.24-.97h-1.49v1.96h1.49Z"></path><path class="cls-10" d="M145.18,54.61h.51l2.21,4.87h-.59l-.57-1.28h-2.63l-.57,1.28h-.56l2.21-4.87ZM146.53,57.7l-1.1-2.46-1.11,2.46h2.21Z"></path><path class="cls-10" d="M149.13,54.64h.61l1.72,4.17,1.73-4.17h.59l-2.08,4.87h-.48l-2.08-4.87Z"></path><path class="cls-10" d="M156.11,54.64h3.5v.5h-2.95v1.65h2.64v.5h-2.64v1.69h2.99v.5h-3.53v-4.84Z"></path><path class="cls-10" d="M162.12,54.64h.55v4.33h2.72v.5h-3.27v-4.84Z"></path></g></svg>