<svg xmlns="http://www.w3.org/2000/svg" id="Layer_1" data-name="Layer 1" viewBox="0 0 215 76.86"><defs><style>      .cls-1 {        fill: #231f20;      }      .cls-2 {        fill: none;        stroke: #27aae1;        stroke-linecap: round;        stroke-linejoin: round;      }      .cls-3 {        fill: #fff;      }      .cls-4 {        fill: #27aae1;      }    </style></defs><g><path class="cls-4" d="M10.37,23.33H3.03v-5.97h21.54v5.97h-7.38v18.62h-6.82v-18.62Z"></path><path class="cls-4" d="M27.03,17.36h11.63c3.76,0,6.36.98,8.01,2.64,1.44,1.44,2.18,3.3,2.18,5.73v.07c0,3.8-2,6.29-5.06,7.59l5.87,8.57h-7.84l-4.96-7.45h-3.02v7.45h-6.82v-24.6Z"></path><path class="cls-4" d="M59.82,17.18h6.57l10.47,24.77h-7.31l-1.76-4.43h-9.52l-1.76,4.43h-7.13l10.44-24.77ZM65.8,32.22l-2.74-6.96-2.78,6.96h5.52Z"></path><path class="cls-4" d="M73.29,17.36h7.59l5.59,15.57,5.62-15.57h7.45l-9.98,24.77h-6.33l-9.94-24.77Z"></path><path class="cls-4" d="M101.4,17.36h19.78v5.76h-13.04v3.76h11.81v5.38h-11.81v3.9h13.21v5.8h-19.96v-24.6Z"></path><path class="cls-4" d="M124.35,17.36h6.82v18.62h11.91v5.97h-18.73v-24.6Z"></path><path class="cls-4" d="M145.51,17.36h6.82v18.62h11.91v5.97h-18.73v-24.6Z"></path><path class="cls-4" d="M166.67,17.36h19.78v5.76h-13.04v3.76h11.81v5.38h-11.81v3.9h13.21v5.8h-19.96v-24.6Z"></path><path class="cls-4" d="M189.62,17.36h11.63c3.76,0,6.36.98,8.01,2.64,1.44,1.44,2.18,3.3,2.18,5.73v.07c0,3.8-2,6.29-5.06,7.59l5.87,8.57h-7.84l-4.95-7.45h-3.02v7.45h-6.82v-24.6ZM200.97,29.16c2.28,0,3.65-1.12,3.65-2.92v-.07c0-1.97-1.44-2.95-3.69-2.95h-4.5v5.94h4.53Z"></path><g><ellipse class="cls-3" cx="33.59" cy="24.22" rx="1.48" ry="2.09" transform="translate(-7.24 31.17) rotate(-45.45)"></ellipse><ellipse class="cls-3" cx="32.17" cy="27.24" rx="1.17" ry="1.59" transform="translate(-5.26 46.62) rotate(-67.64)"></ellipse><ellipse class="cls-3" cx="36.75" cy="22.26" rx="1.48" ry="2.09" transform="translate(-5.13 12.67) rotate(-18.31)"></ellipse><ellipse class="cls-3" cx="40.09" cy="22.31" rx="1.59" ry="1.17" transform="translate(15.11 60.79) rotate(-86.11)"></ellipse><path class="cls-3" d="M42.45,26.04c.11.17.2.36.26.55.24.82-.09,1.73-.85,2.21-.43.27-.93.35-1.39.26-.04-.01-.09-.02-.13-.03-.46-.09-.96,0-1.39.26-.4.25-.68.62-.82,1.04,0,0,0,0,0,0-.03.1-.06.2-.07.3h0c-.14.42-.42.8-.83,1.05-.85.53-1.94.33-2.55-.42-.03-.04-.06-.07-.09-.11-.02-.03-.05-.07-.07-.1-.01-.02-.02-.04-.04-.05-1.06-1.7-.18-4.16,1.95-5.54.03-.02.06-.04.09-.06s.06-.04.09-.06c2.1-1.25,4.57-1.02,5.7.5.01.01.02.02.03.04.04.05.07.11.11.16h0Z"></path></g><path class="cls-4" d="M189.62,17.36h11.63c3.76,0,6.36.98,8.01,2.64,1.44,1.44,2.18,3.3,2.18,5.73v.07c0,3.8-2,6.29-5.06,7.59l5.87,8.57h-7.84l-4.95-7.45h-3.02v7.45h-6.82v-24.6ZM200.97,29.16c2.28,0,3.65-1.12,3.65-2.92v-.07c0-1.97-1.44-2.95-3.69-2.95h-4.5v5.94h4.53Z"></path></g><g><path class="cls-4" d="M52.89,54.97h.98l2.27,2.98v-2.98h1.05v4.84h-.91l-2.34-3.08v3.08h-1.05v-4.84Z"></path><path class="cls-4" d="M59.52,57.4h0c0-1.39,1.08-2.52,2.58-2.52s2.56,1.11,2.56,2.49h0c0,1.39-1.08,2.52-2.58,2.52s-2.56-1.11-2.56-2.49ZM63.55,57.4h0c0-.84-.61-1.54-1.47-1.54s-1.45.68-1.45,1.51h0c0,.84.61,1.53,1.46,1.53s1.45-.68,1.45-1.51Z"></path><path class="cls-4" d="M70.45,54.97h3.68v.97h-2.62v1.03h2.31v.97h-2.31v1.87h-1.06v-4.84Z"></path><path class="cls-4" d="M76.36,54.97h2.21c.62,0,1.09.17,1.41.49.27.27.41.65.41,1.11h0c0,.79-.42,1.29-1.04,1.51l1.18,1.73h-1.24l-1.04-1.55h-.84v1.55h-1.06v-4.84ZM78.51,57.32c.52,0,.82-.28.82-.68h0c0-.47-.32-.71-.84-.71h-1.06v1.39h1.08Z"></path><path class="cls-4" d="M82.79,54.97h1.06v4.84h-1.06v-4.84Z"></path><path class="cls-4" d="M86.45,54.97h1.06v3.87h2.41v.97h-3.48v-4.84Z"></path><path class="cls-4" d="M92.11,54.97h1.06v3.87h2.41v.97h-3.48v-4.84Z"></path><path class="cls-4" d="M97.26,59.09l.75-.89c.48.38,1.01.58,1.57.58.37,0,.56-.12.56-.33h0c0-.22-.16-.33-.82-.48-1.03-.24-1.83-.53-1.83-1.51h0c0-.91.71-1.56,1.87-1.56.82,0,1.47.22,1.99.64l-.67.95c-.44-.32-.93-.48-1.35-.48-.33,0-.48.13-.48.31h0c0,.24.17.33.84.48,1.11.24,1.8.6,1.8,1.51h0c0,1-.78,1.59-1.96,1.59-.86,0-1.67-.27-2.27-.8Z"></path><path class="cls-1" d="M107.07,54.97h1.81c1.09,0,1.81.58,1.81,1.54h0c0,1.06-.87,1.6-1.9,1.6h-1.17v1.71h-.55v-4.84ZM108.81,57.6c.8,0,1.33-.43,1.33-1.06h0c0-.71-.52-1.06-1.3-1.06h-1.22v2.13h1.2Z"></path><path class="cls-1" d="M113.07,54.97h3.5v.5h-2.95v1.65h2.64v.5h-2.64v1.69h2.99v.5h-3.53v-4.84Z"></path><path class="cls-1" d="M120.36,55.47h-1.62v-.5h3.8v.5h-1.62v4.33h-.55v-4.33Z"></path><path class="cls-1" d="M129.68,55.47h-1.62v-.5h3.8v.5h-1.62v4.33h-.55v-4.33Z"></path><path class="cls-1" d="M134.26,54.97h2.08c.59,0,1.07.18,1.38.48.23.23.37.57.37.95h0c0,.82-.55,1.29-1.31,1.42l1.49,1.98h-.67l-1.4-1.88h-1.38v1.88h-.55v-4.84ZM136.3,57.43c.73,0,1.24-.37,1.24-1h0c0-.61-.46-.97-1.24-.97h-1.49v1.96h1.49Z"></path><path class="cls-1" d="M142.44,54.93h.51l2.21,4.87h-.59l-.57-1.28h-2.63l-.57,1.28h-.56l2.21-4.87ZM143.78,58.03l-1.1-2.46-1.11,2.46h2.21Z"></path><path class="cls-1" d="M146.38,54.97h.61l1.72,4.17,1.73-4.17h.59l-2.08,4.87h-.48l-2.08-4.87Z"></path><path class="cls-1" d="M153.37,54.97h3.5v.5h-2.95v1.65h2.64v.5h-2.64v1.69h2.99v.5h-3.53v-4.84Z"></path><path class="cls-1" d="M159.38,54.97h.55v4.33h2.72v.5h-3.27v-4.84Z"></path></g><line class="cls-2" x1="76.87" y1="48.52" x2="143.08" y2="48.52"></line></svg>